<svg xmlns="http://www.w3.org/2000/svg" xmlns:xlink="http://www.w3.org/1999/xlink" viewBox="0 0 1920 1080"><defs><style>.cls-1,.cls-103,.cls-20{fill:none;}.cls-2{isolation:isolate;}.cls-3{fill:#070707;}.cls-4{clip-path:url(#clip-path);}.cls-5{fill:#f86f6b;}.cls-6{fill:#703e03;}.cls-7{fill:#bda57d;}.cls-119,.cls-120,.cls-8{fill:#fff;}.cls-9{fill:#abe2f5;}.cls-10{fill:#fbf9eb;opacity:0.39;}.cls-11{clip-path:url(#clip-path-2);}.cls-12{fill:#b48b68;}.cls-13{fill:#b49d79;}.cls-14{fill:#b1805f;}.cls-15{fill:#a26e53;}.cls-16{fill:#ac735a;}.cls-17{fill:#b3805d;}.cls-18{fill:#c6c6c6;}.cls-19{fill:#d8d8d8;}.cls-20{stroke:#2e303a;stroke-width:3.98px;}.cls-103,.cls-20{stroke-linecap:round;stroke-linejoin:round;}.cls-21{fill:#2e303a;}.cls-22{opacity:0.2;}.cls-23{fill:#33211f;}.cls-24{fill:#eab306;}.cls-25{fill:#c1c1c1;}.cls-26{fill:#aaa39f;}.cls-27{fill:#ddd;}.cls-28{fill:#3f2a29;}.cls-29{fill:#fdd110;}.cls-30{fill:#f25e30;}.cls-31{fill:#8b1138;}.cls-32{fill:#fe733e;}.cls-33{fill:#ba5007;}.cls-34{fill:#3f2a2a;}.cls-35{fill:#593d3d;}.cls-36{fill:#f57319;}.cls-37,.cls-51,.cls-58{opacity:0.4;}.cls-37,.cls-50,.cls-51,.cls-58,.cls-74{mix-blend-mode:multiply;}.cls-38{fill:#020202;}.cls-39{fill:#424860;}.cls-40{fill:#ededed;}.cls-41{fill:url(#Áåçûìÿííûé_ãðàäèåíò_260);}.cls-42{fill:url(#Áåçûìÿííûé_ãðàäèåíò_259);}.cls-43{fill:url(#Áåçûìÿííûé_ãðàäèåíò_258);}.cls-44{fill:url(#Áåçûìÿííûé_ãðàäèåíò_258-2);}.cls-45{fill:#c99920;}.cls-46{fill:#d0a463;}.cls-47{fill:#e3b86f;}.cls-48{fill:#dbdbdb;}.cls-49{fill:#ffce43;}.cls-50{fill:#e2e2e2;}.cls-51{fill:#bc973b;}.cls-52{fill:#a9b232;}.cls-53{fill:#3a83bf;}.cls-54{fill:#1f5d9b;}.cls-55{fill:#322a37;}.cls-56,.cls-58{fill:#b02b27;}.cls-57{fill:#e1413c;}.cls-59{fill:#f74c47;}.cls-60{fill:#e9e9e9;}.cls-61{fill:url(#Áåçûìÿííûé_ãðàäèåíò_33);}.cls-62{fill:#f8f8f8;}.cls-63{fill:#291b2a;}.cls-64{fill:#362437;}.cls-65{fill:#543956;}.cls-66{fill:#2b2823;}.cls-66,.cls-74{opacity:0.5;}.cls-67{fill:#dddbd7;}.cls-68{fill:#efefef;}.cls-69{fill:#85868e;}.cls-70{fill:#a8aab4;}.cls-71{fill:url(#Áåçûìÿííûé_ãðàäèåíò_258-3);}.cls-72{fill:url(#Áåçûìÿííûé_ãðàäèåíò_260-2);}.cls-73{fill:url(#Áåçûìÿííûé_ãðàäèåíò_259-2);}.cls-74,.cls-76{fill:#251e28;}.cls-75{fill:#1b161e;}.cls-77{fill:#d43939;}.cls-78{fill:#fc5454;}.cls-79{fill:#8d5afe;}.cls-80{fill:#57585b;}.cls-81{fill:#d62821;}.cls-82{fill:#ea5757;}.cls-83{fill:#361575;}.cls-84{fill:#4d1e97;}.cls-85{fill:#a01313;}.cls-86{fill:#cecece;}.cls-87{fill:#3e4f54;}.cls-88{fill:#e0e0e0;}.cls-89{fill:#edb043;}.cls-90{fill:#10b780;}.cls-91{fill:#799011;}.cls-92{fill:#a1c01b;}.cls-93{fill:#28d4bf;}.cls-94{fill:#b7d82a;}.cls-95{fill:#682849;}.cls-96{fill:#a04473;}.cls-97{fill:#ba5c8c;}.cls-98{fill:#a4593f;}.cls-99{fill:#282868;}.cls-100{fill:#d18f5a;}.cls-101{fill:#ffe590;}.cls-102{fill:url(#Áåçûìÿííûé_ãðàäèåíò_259-3);}.cls-103{stroke-width:10px;stroke:url(#Áåçûìÿííûé_ãðàäèåíò_259-4);}.cls-104{fill:#ea4546;}.cls-105{font-size:64.79px;}.cls-105,.cls-106{fill:#fefefe;}.cls-105,.cls-106,.cls-119,.cls-120{font-family:OpenSans-Bold, Open Sans;font-weight:700;}.cls-106{font-size:38.82px;}.cls-107{fill:#443e3a;}.cls-108{fill:#231202;}.cls-109{opacity:0.3;}.cls-110{fill:#d38f62;}.cls-111{fill:#1e292e;}.cls-112{fill:#12191c;}.cls-113{fill:#efb185;}.cls-114{fill:#152b2c;}.cls-115{fill:#0b1919;}.cls-116{fill:#e6a376;}.cls-117{fill:#750b31;}.cls-118{fill:#773ceb;}.cls-119{font-size:70.31px;}.cls-120{font-size:55.18px;}</style><clipPath id="clip-path"><rect class="cls-1" width="1920" height="1080"/></clipPath><clipPath id="clip-path-2"><polygon class="cls-1" points="164.15 959.88 990.67 479.56 1668.83 866.72 834.68 1346.62 164.15 959.88"/></clipPath><linearGradient id="Áåçûìÿííûé_ãðàäèåíò_260" x1="-2267.62" y1="1387.21" x2="-2307.94" y2="1457.04" gradientTransform="matrix(-1, 0.58, 0, 1, -1967.37, 800.54)" gradientUnits="userSpaceOnUse"><stop offset="0" stop-color="#f0eeea"/><stop offset="1" stop-color="#fff"/></linearGradient><linearGradient id="Áåçûìÿííûé_ãðàäèåíò_259" x1="-484.6" y1="725.29" x2="-477.58" y2="725.29" gradientTransform="translate(802.77)" gradientUnits="userSpaceOnUse"><stop offset="0" stop-color="#c5c4c0"/><stop offset="1" stop-color="#f0eeea"/></linearGradient><linearGradient id="Áåçûìÿííûé_ãðàäèåíò_258" x1="-2448.13" y1="941.55" x2="-2446.46" y2="944.45" gradientTransform="matrix(-1, 0, 0, 1, -1967.37, 0)" gradientUnits="userSpaceOnUse"><stop offset="0" stop-color="#fff"/><stop offset="1" stop-color="#f0eeea"/></linearGradient><linearGradient id="Áåçûìÿííûé_ãðàäèåíò_258-2" x1="-2403.3" y1="967.43" x2="-2401.62" y2="970.33" xlink:href="#Áåçûìÿííûé_ãðàäèåíò_258"/><linearGradient id="Áåçûìÿííûé_ãðàäèåíò_33" x1="-2016.16" y1="742.68" x2="-2119.55" y2="802.37" gradientTransform="matrix(-1, 0, 0, 1, -1603.08, 0)" gradientUnits="userSpaceOnUse"><stop offset="0" stop-color="#fff"/><stop offset="0.11" stop-color="#fbfbfb"/><stop offset="0.58" stop-color="#eee"/><stop offset="1" stop-color="#e9e9e9"/></linearGradient><linearGradient id="Áåçûìÿííûé_ãðàäèåíò_258-3" x1="-342.93" y1="660.03" x2="-344.61" y2="662.93" gradientTransform="translate(802.77)" xlink:href="#Áåçûìÿííûé_ãðàäèåíò_258"/><linearGradient id="Áåçûìÿííûé_ãðàäèåíò_260-2" x1="-2539.26" y1="1700.89" x2="-2579.58" y2="1770.72" xlink:href="#Áåçûìÿííûé_ãðàäèåíò_260"/><linearGradient id="Áåçûìÿííûé_ãðàäèåíò_259-2" x1="-212.57" y1="882.35" x2="-205.55" y2="882.35" xlink:href="#Áåçûìÿííûé_ãðàäèåíò_259"/><linearGradient id="Áåçûìÿííûé_ãðàäèåíò_259-3" x1="300.15" y1="290.32" x2="334.22" y2="270.65" gradientTransform="translate(398.89 -134.97) rotate(59.64)" xlink:href="#Áåçûìÿííûé_ãðàäèåíò_259"/><linearGradient id="Áåçûìÿííûé_ãðàäèåíò_259-4" x1="314.33" y1="303.81" x2="398.75" y2="303.81" gradientTransform="matrix(1, 0, 0, 1, 0, 0)" xlink:href="#Áåçûìÿííûé_ãðàäèåíò_259"/></defs><g class="cls-2"><g id="_163-Percent_to_Fraction_Calculator" data-name="163-Percent to Fraction Calculator"><polygon class="cls-3" points="96.76 1021.49 110.44 1029.38 110.44 291.52 96.76 283.62 96.76 1021.49"/><g class="cls-4"><rect class="cls-5" width="1920" height="1080"/><polygon class="cls-6" points="1865.04 898.15 1753.17 833.56 1753.17 697 1865.04 761.59 1865.04 898.15"/><polygon class="cls-3" points="1774.47 806 1774.47 845.62 829.45 1394.83 829.45 1348.83 1774.47 806"/><polygon class="cls-7" points="1105.96 432.38 110.44 1007.14 110.44 291.49 1105.96 -283.27 1105.96 432.38"/><polygon class="cls-8" points="1109.82 421.55 979.28 496.92 979.28 -207.9 1109.82 -283.27 1109.82 421.55"/><polygon class="cls-8" points="240.98 953.81 110.44 1029.18 110.44 286.12 240.98 210.75 240.98 953.81"/><polygon class="cls-6" points="1105.13 323.31 1105.13 -79.05 1865.04 359.69 1865.04 762.04 1105.13 323.31"/><polygon class="cls-9" points="1854.52 365.67 1854.52 743.92 1115.65 317.33 1115.65 -60.92 1854.52 365.67"/><polygon class="cls-10" points="1674.63 261.81 1115.65 306.79 1115.65 198.23 1509.61 166.53 1674.63 261.81"/><polygon class="cls-10" points="1825.36 348.83 1250.35 395.1 1192.7 361.82 1767.72 315.55 1825.36 348.83"/><polygon class="cls-6" points="1231.47 384.19 1223.05 379.34 1223.05 1.09 1231.47 5.95 1231.47 384.19"/><polygon class="cls-6" points="1360.38 458.62 1351.97 453.76 1351.97 75.52 1360.38 80.37 1360.38 458.62"/><polygon class="cls-6" points="1489.29 533.05 1480.88 528.19 1480.88 149.94 1489.29 154.8 1489.29 533.05"/><polygon class="cls-6" points="1618.2 607.48 1609.79 602.62 1609.79 224.37 1618.2 229.23 1618.2 607.48"/><polygon class="cls-6" points="1747.11 681.9 1738.7 677.05 1738.7 298.8 1747.11 303.65 1747.11 681.9"/><g class="cls-11"><polygon class="cls-12" points="1871.4 597.92 1773.61 654.75 1855.26 701.89 1953.06 645.06 1871.4 597.92"/><polygon class="cls-13" points="1996.61 -42.45 2150.41 -131.84 2068.76 -178.98 1914.95 -89.6 1761.18 -0.23 1842.83 46.91 1996.61 -42.45"/><polygon class="cls-14" points="1761.18 -0.23 1914.95 -89.6 1869.61 -115.78 1560.94 62.34 1607.37 89.15 1761.18 -0.23"/><polygon class="cls-14" points="1996.61 -42.45 1842.83 46.91 1689.03 136.29 1770.68 183.44 1924.49 94.06 2078.26 4.69 1996.61 -42.45"/><polygon class="cls-14" points="1842.83 46.91 1761.18 -0.23 1607.37 89.15 1453.6 178.51 1535.25 225.66 1689.03 136.29 1842.83 46.91"/><polygon class="cls-15" points="1453.6 178.51 1607.37 89.15 1560.94 62.34 1252.28 240.47 1299.79 267.9 1453.6 178.51"/><polygon class="cls-15" points="2159.92 51.83 2006.14 141.2 1852.34 230.58 1933.99 277.72 2087.8 188.34 2241.57 98.98 2159.92 51.83"/><polygon class="cls-16" points="2006.14 141.2 1924.49 94.06 1770.68 183.44 1616.91 272.8 1698.56 319.95 1852.34 230.58 2006.14 141.2"/><polygon class="cls-12" points="1689.03 136.29 1535.25 225.66 1381.45 315.04 1463.1 362.18 1616.91 272.8 1770.68 183.44 1689.03 136.29"/><polygon class="cls-14" points="1535.25 225.66 1453.6 178.51 1299.79 267.9 1201.99 324.73 1283.65 371.87 1381.45 315.04 1535.25 225.66"/><polygon class="cls-17" points="2169.48 235.5 2087.8 188.34 1933.99 277.72 1780.22 367.09 1861.9 414.25 2015.68 324.88 2169.48 235.5"/><polygon class="cls-13" points="1252.28 240.47 1154.14 297.1 1201.99 324.73 1299.79 267.9 1252.28 240.47"/><polygon class="cls-15" points="1852.34 230.58 1698.56 319.95 1544.76 409.33 1626.41 456.47 1780.22 367.09 1933.99 277.72 1852.34 230.58"/><polygon class="cls-15" points="1698.56 319.95 1616.91 272.8 1463.1 362.18 1365.3 419.02 1446.96 466.16 1544.76 409.33 1698.56 319.95"/><polygon class="cls-13" points="1381.45 315.04 1283.65 371.87 1365.3 419.02 1463.1 362.18 1381.45 315.04"/><polygon class="cls-14" points="2015.68 324.88 1861.9 414.25 1708.09 503.63 1789.75 550.77 1943.55 461.39 2097.33 372.03 2015.68 324.88"/><polygon class="cls-13" points="1861.9 414.25 1780.22 367.09 1626.41 456.47 1528.61 513.3 1610.3 560.47 1708.09 503.63 1861.9 414.25"/><polygon class="cls-16" points="1544.76 409.33 1446.96 466.16 1528.61 513.3 1626.41 456.47 1544.76 409.33"/><polygon class="cls-14" points="2178.99 419.17 2025.21 508.54 1871.4 597.92 1953.06 645.06 2106.86 555.68 2260.64 466.31 2178.99 419.17"/><polygon class="cls-7" points="2025.21 508.54 1943.55 461.39 1789.75 550.77 1691.95 607.61 1773.61 654.75 1871.4 597.92 2025.21 508.54"/><polygon class="cls-14" points="1708.09 503.63 1610.3 560.47 1691.95 607.61 1789.75 550.77 1708.09 503.63"/><polygon class="cls-15" points="2188.52 602.82 2106.86 555.68 1953.06 645.06 1855.26 701.89 1936.92 749.04 2034.71 692.21 2188.52 602.82"/><polygon class="cls-14" points="1951.71 868.95 2048.13 812.92 2004.74 787.88 1753.67 932.76 1797.94 958.32 1951.71 868.95"/><polygon class="cls-16" points="1879.59 1005.46 1961.25 1052.61 2115.02 963.24 2211.43 907.21 2129.78 860.07 2033.37 916.1 1879.59 1005.46"/><polygon class="cls-12" points="1879.59 1005.46 2033.37 916.1 1951.71 868.95 1797.94 958.32 1644.13 1047.7 1725.79 1094.84 1879.59 1005.46"/><polygon class="cls-14" points="1644.13 1047.7 1797.94 958.32 1753.67 932.76 1444.98 1110.9 1490.33 1137.08 1644.13 1047.7"/><polygon class="cls-15" points="1889.1 1189.13 2042.9 1099.75 2196.68 1010.38 2115.02 963.24 1961.25 1052.61 1807.44 1141.99 1889.1 1189.13"/><polygon class="cls-15" points="1571.98 1184.22 1653.64 1231.37 1807.44 1141.99 1961.25 1052.61 1879.59 1005.46 1725.79 1094.84 1571.98 1184.22"/><polygon class="cls-13" points="1571.98 1184.22 1725.79 1094.84 1644.13 1047.7 1490.33 1137.08 1336.55 1226.45 1418.2 1273.59 1571.98 1184.22"/><polygon class="cls-14" points="1183.21 425.39 1279.63 369.36 1197.97 322.22 1101.56 378.25 1183.21 425.39"/><polygon class="cls-14" points="1101.56 378.25 1197.97 322.22 1154.59 297.18 903.52 442.06 947.78 467.61 1101.56 378.25"/><polygon class="cls-15" points="1346.52 519.68 1442.93 463.65 1361.28 416.51 1264.87 472.54 1346.52 519.68"/><polygon class="cls-16" points="1029.44 514.76 1111.09 561.9 1264.87 472.54 1361.28 416.51 1279.63 369.36 1183.21 425.39 1029.44 514.76"/><polygon class="cls-12" points="1029.44 514.76 1183.21 425.39 1101.56 378.25 947.78 467.61 793.98 557 875.63 604.14 1029.44 514.76"/><polygon class="cls-15" points="1509.86 613.98 1606.27 557.95 1524.59 510.8 1428.18 566.82 1509.86 613.98"/><polygon class="cls-14" points="793.98 557 947.78 467.61 903.52 442.06 594.83 620.2 640.17 646.38 793.98 557"/><polygon class="cls-17" points="1192.75 609.04 1274.4 656.19 1428.18 566.82 1524.59 510.8 1442.93 463.65 1346.52 519.68 1192.75 609.04"/><polygon class="cls-15" points="1038.94 698.43 1192.75 609.04 1346.52 519.68 1264.87 472.54 1111.09 561.9 957.29 651.28 1038.94 698.43"/><polygon class="cls-14" points="1673.17 708.27 1769.58 652.24 1687.93 605.1 1591.52 661.13 1673.17 708.27"/><polygon class="cls-15" points="721.83 693.52 803.48 740.66 957.29 651.28 1111.09 561.9 1029.44 514.76 875.63 604.14 721.83 693.52"/><polygon class="cls-14" points="1356.09 703.35 1437.74 750.49 1591.52 661.13 1687.93 605.1 1606.27 557.95 1509.86 613.98 1356.09 703.35"/><polygon class="cls-13" points="721.83 693.52 875.63 604.14 793.98 557 640.17 646.38 486.39 735.74 568.05 782.89 721.83 693.52"/><polygon class="cls-14" points="1202.28 792.73 1356.09 703.35 1509.86 613.98 1428.18 566.82 1274.4 656.19 1120.6 745.57 1202.28 792.73"/><polygon class="cls-14" points="1836.48 802.56 1932.89 746.53 1851.24 699.38 1754.83 755.41 1836.48 802.56"/><polygon class="cls-14" points="486.39 735.74 640.17 646.38 594.83 620.2 286.16 798.32 332.59 825.12 486.39 735.74"/><polygon class="cls-13" points="885.14 787.81 966.79 834.95 1120.6 745.57 1274.4 656.19 1192.75 609.04 1038.94 698.43 885.14 787.81"/><polygon class="cls-12" points="1519.39 797.64 1601.05 844.78 1754.83 755.41 1851.24 699.38 1769.58 652.24 1673.17 708.27 1519.39 797.64"/><polygon class="cls-16" points="1038.94 698.43 957.29 651.28 803.48 740.66 649.71 830.03 731.36 877.17 885.14 787.81 1038.94 698.43"/><polygon class="cls-14" points="1365.59 887.02 1519.39 797.64 1673.17 708.27 1591.52 661.13 1437.74 750.49 1283.93 839.87 1365.59 887.02"/><polygon class="cls-14" points="721.83 693.52 568.05 782.89 414.25 872.27 495.9 919.41 649.71 830.03 803.48 740.66 721.83 693.52"/><polygon class="cls-7" points="1048.48 882.11 1130.13 929.25 1283.93 839.87 1437.74 750.49 1356.09 703.35 1202.28 792.73 1048.48 882.11"/><polygon class="cls-15" points="1682.7 891.92 1753.58 932.84 2004.59 787.92 1932.89 746.53 1836.48 802.56 1682.7 891.92"/><polygon class="cls-14" points="568.05 782.89 486.39 735.74 332.59 825.12 178.81 914.49 260.47 961.63 414.25 872.27 568.05 782.89"/><polygon class="cls-14" points="1202.28 792.73 1120.6 745.57 966.79 834.95 813.02 924.32 894.7 971.48 1048.48 882.11 1202.28 792.73"/><polygon class="cls-7" points="1528.9 981.3 1682.7 891.92 1836.48 802.56 1754.83 755.41 1601.05 844.78 1447.24 934.16 1528.9 981.3"/><polygon class="cls-15" points="178.81 914.49 332.59 825.12 286.16 798.32 -22.5 976.44 25.01 1003.87 178.81 914.49"/><polygon class="cls-15" points="885.14 787.81 731.36 877.17 577.56 966.55 659.21 1013.7 813.02 924.32 966.79 834.95 885.14 787.81"/><polygon class="cls-15" points="1211.79 976.4 1293.44 1023.54 1447.24 934.16 1601.05 844.78 1519.39 797.64 1365.59 887.02 1211.79 976.4"/><polygon class="cls-16" points="731.36 877.17 649.71 830.03 495.9 919.41 342.12 1008.78 423.78 1055.92 577.56 966.55 731.36 877.17"/><polygon class="cls-12" points="1365.59 887.02 1283.93 839.87 1130.13 929.25 976.35 1018.62 1058.01 1065.76 1211.79 976.4 1365.59 887.02"/><polygon class="cls-12" points="414.25 872.27 260.47 961.63 106.67 1051.01 188.32 1098.16 342.12 1008.78 495.9 919.41 414.25 872.27"/><polygon class="cls-15" points="1048.48 882.11 894.7 971.48 740.89 1060.86 822.55 1108 976.35 1018.62 1130.13 929.25 1048.48 882.11"/><polygon class="cls-14" points="1528.9 981.3 1375.1 1070.68 1444.97 1111.03 1753.58 932.84 1682.7 891.92 1528.9 981.3"/><polygon class="cls-14" points="260.47 961.63 178.81 914.49 25.01 1003.87 -72.79 1060.7 8.87 1107.85 106.67 1051.01 260.47 961.63"/><polygon class="cls-17" points="894.7 971.48 813.02 924.32 659.21 1013.7 505.43 1103.06 587.12 1150.22 740.89 1060.86 894.7 971.48"/><polygon class="cls-15" points="1293.44 1023.54 1139.66 1112.91 1221.32 1160.05 1375.1 1070.68 1528.9 981.3 1447.24 934.16 1293.44 1023.54"/><polygon class="cls-13" points="-22.5 976.44 -120.65 1033.07 -72.79 1060.7 25.01 1003.87 -22.5 976.44"/><polygon class="cls-15" points="577.56 966.55 423.78 1055.92 269.98 1145.3 351.63 1192.44 505.43 1103.06 659.21 1013.7 577.56 966.55"/><polygon class="cls-14" points="1211.79 976.4 1058.01 1065.76 904.2 1155.14 985.86 1202.29 1139.66 1112.91 1293.44 1023.54 1211.79 976.4"/><polygon class="cls-15" points="423.78 1055.92 342.12 1008.78 188.32 1098.16 90.52 1154.99 172.18 1202.13 269.98 1145.3 423.78 1055.92"/><polygon class="cls-14" points="1058.01 1065.76 976.35 1018.62 822.55 1108 668.77 1197.37 750.43 1244.51 904.2 1155.14 1058.01 1065.76"/><polygon class="cls-13" points="106.67 1051.01 8.87 1107.85 90.52 1154.99 188.32 1098.16 106.67 1051.01"/><polygon class="cls-14" points="740.89 1060.86 587.12 1150.22 433.31 1239.61 514.97 1286.75 668.77 1197.37 822.55 1108 740.89 1060.86"/><polygon class="cls-14" points="1375.1 1070.68 1221.32 1160.05 1067.51 1249.43 1136.38 1289.19 1444.97 1111.03 1375.1 1070.68"/></g><polygon class="cls-12" points="1774.3 729.88 1774.08 806.1 1655.23 875.17 1655.45 798.95 1774.3 729.88"/><polygon class="cls-15" points="1655.45 798.95 1655.23 875.17 979.28 484.91 979.49 408.69 1655.45 798.95"/><polygon class="cls-18" points="1774.3 709.72 1774.08 729.88 1655.23 798.95 1655.45 778.79 1774.3 709.72"/><polygon class="cls-19" points="1655.45 778.79 1655.23 798.95 979.28 408.69 979.49 388.52 1655.45 778.79"/><polygon class="cls-8" points="1774.3 710.14 1655.45 779.21 979.49 388.94 1098.34 319.88 1774.3 710.14"/><polyline class="cls-20" points="1774.47 771.45 1655.45 840.62 979.49 450.36"/><polygon class="cls-3" points="1878.71 890.25 1865.04 898.15 1865.04 357.36 1878.71 349.47 1878.71 890.25"/><polygon class="cls-21" points="1878.71 349.48 1865.04 357.37 1178.33 -36.08 1192 -43.98 1878.71 349.48"/><polygon class="cls-21" points="96.76 283.62 110.44 291.52 797.15 -101.94 783.47 -109.83 96.76 283.62"/><ellipse class="cls-22" cx="1194.17" cy="444.57" rx="79.02" ry="45.62" transform="translate(-2.77 7.52) rotate(-0.36)"/><ellipse class="cls-22" cx="1375.5" cy="546.69" rx="79.02" ry="45.62" transform="translate(-3.41 8.66) rotate(-0.36)"/><ellipse class="cls-22" cx="1563.89" cy="653.89" rx="79.02" ry="45.62" transform="translate(-4.08 9.85) rotate(-0.36)"/><path class="cls-23" d="M1563.89,369.88s-9.93-4.41-22,6.3c-15.33,13.55-13.22,54.81-13.83,75.07s-1.5,37.45-1.5,39.86,2.94,6.4,10.66,3.2,17-12.05,17-12.05Z"/><path class="cls-23" d="M1592.29,648.68c0,8.1-11.67,14.66-26.06,14.66s-26.06-6.56-26.06-14.66S1551.84,634,1566.23,634,1592.29,640.58,1592.29,648.68Z"/><rect class="cls-24" x="1540.17" y="645" width="52.11" height="4.18"/><ellipse class="cls-6" cx="1566.23" cy="645.78" rx="26.06" ry="14.67"/><path class="cls-23" d="M1570.6,643.32c0,1.36-2,2.46-4.37,2.46s-4.37-1.1-4.37-2.46,2-2.46,4.37-2.46S1570.6,642,1570.6,643.32Z"/><rect class="cls-6" x="1561.86" y="500.91" width="8.73" height="142.41"/><path class="cls-25" d="M1590.56,409.85c9.6-16.06,16.27-8.65,18.06-6.05-.14-.68-.26-1.36-.47-2.05-3.45-11-42-34.54-52.1-28.7-12.39,7.19-16,21.22-18.51,27.58-3.28,8.46-1.83,14.7.38,20.2,4,9.87,4.36,14.11,2.09,29.39-1.18,7.94-7.94,20.46-7.94,51,0,.12,0,.25,0,.37.14,5.68,4.31,11.64,12.4,16.31,13.71,7.91,33.8,9.37,47.12,3.87a211,211,0,0,0-10.18-52.12C1576.42,453.8,1578.94,429.3,1590.56,409.85Z"/><path class="cls-26" d="M1604.05,506.54h0c-.12-16.43-6.86-23-10.24-37.59-2.78-11.95-2.83-14.55-.65-25.51,2.1-10.52,18.81-23.63,15.46-39.64-1.79-2.6-8.46-10-18.06,6.05-11.62,19.45-14.14,43.95-9.11,59.77a211,211,0,0,1,10.18,52.12,29.92,29.92,0,0,0,3.69-1.77C1601.5,516.4,1604.34,511.57,1604.05,506.54Z"/><path class="cls-25" d="M1572.33,363.93c0,3.52-.48,9.78-6.18,10.64s-12.36,16.75,4.37,22.46,27.89-6.52,27.89-6.52-6.8-5.13-7.85-13.87c-.88-7.33,0-10.69,0-10.69Z"/><path class="cls-27" d="M1587.41,361.18c3.81,2.19,4.22,5.52.93,7.42s-9.06,1.66-12.86-.53-4.22-5.52-.93-7.43S1583.61,359,1587.41,361.18Z"/><path class="cls-27" d="M1559.9,372.77s-16.27,15-20.23,34.66c-1.53,7.62,7.25,20,4.61,35.38s-9.74,32.69-8.86,67.4a34.08,34.08,0,0,0,7.44,6.65c-.16-7.75.46-54.93,4.72-71.19s-4-23.82.22-37,11.83-27.42,19.93-34C1566.7,372.13,1559.9,372.77,1559.9,372.77Z"/><path class="cls-28" d="M1564.76,372.7H1554s-10,7.38-12.12,11.6-8.31,14.25-7.8,27.43c.3,7.58,1.38,21.4,1.29,34.21s-2.38,37.25-3.29,41.77a20.72,20.72,0,0,0,3.3,15.94,22.71,22.71,0,0,0,9.71,7.92l9-9.54-.09-50.78s-11.42-34.79,0-57.65S1564.76,372.7,1564.76,372.7Z"/><path class="cls-28" d="M1594,387.18s-17.68,20-20.6,24.25S1554,451.25,1554,451.25v49.66c1.83,5.15,2.81,10.88,5.93,17.81,5.09.55,12.86,2.66,26.52.29,14-2.43,19.06-16.26,19.06-16.26s-7.66-37.5-8-45.12,12.08-39.17,11.63-46.5.75-13.52-11.72-23.26C1594,385.28,1594,387.18,1594,387.18Z"/><path class="cls-23" d="M1559.18,369.88c-3,1.61-4.29,2.82-9.19,8.92-3.59,4.49-5.54,13.56-5.54,13.56l7.43,4.3-10,6.1s-.58,9.23,4.47,27.81c4.27,15.72,7.63,20.68,7.63,20.68s-5.52-33.9,1.83-53.69c6.06-16.32,11.93-19.1,15.9-28.31C1570.35,367.94,1561.86,368.46,1559.18,369.88Z"/><path class="cls-23" d="M1587.39,385.37c-1.06,2.05-11.26,13.89-16.58,21.24-10.91,15.07-16.84,44.64-16.84,44.64s14.79-17.54,18.25-21.36,8.93-10.94,8.93-10.94l-.84-11,9.27,3.59s8.85-14.6,7.76-23.68c-1.26-10.38-6.78-12.46-6.78-12.46A42.16,42.16,0,0,1,1587.39,385.37Z"/><path class="cls-29" d="M1552.14,462.38a4.36,4.36,0,0,0,1.83,3.49c1,.59,1.83,0,1.83-1.38A4.38,4.38,0,0,0,1554,461C1553,460.42,1552.14,461,1552.14,462.38Z"/><path class="cls-29" d="M1541.4,442.56a4.38,4.38,0,0,0,1.83,3.49c1,.58,1.83,0,1.83-1.38a4.4,4.4,0,0,0-1.83-3.5C1542.22,440.59,1541.4,441.21,1541.4,442.56Z"/><path class="cls-29" d="M1568.5,452.5a4.35,4.35,0,0,0,1.82,3.49c1,.59,1.83,0,1.83-1.38a4.38,4.38,0,0,0-1.83-3.49C1569.31,450.54,1568.5,451.16,1568.5,452.5Z"/><path class="cls-29" d="M1552.14,485.29a4.38,4.38,0,0,0,1.83,3.49c1,.58,1.83,0,1.83-1.38a4.36,4.36,0,0,0-1.83-3.49C1553,483.32,1552.14,483.94,1552.14,485.29Z"/><path class="cls-23" d="M1603.79,393.89s-7.65,13.92-9.76,35.32c-1.23,12.47-4.22,54.73-3.47,67.21s2.26,34.36,2.26,34.36,14.37,3.29,18-5.74c0-4.19.25-16.72.25-19.43s3.17-66.63,2.72-79S1617.66,406.41,1603.79,393.89Z"/><path class="cls-23" d="M1404.54,546.19c0,8.1-11.67,14.67-26.06,14.67s-26.06-6.57-26.06-14.67,11.67-14.66,26.06-14.66S1404.54,538.09,1404.54,546.19Z"/><rect class="cls-24" x="1352.42" y="542.52" width="52.11" height="4.18"/><path class="cls-6" d="M1404.54,543.29c0,8.1-11.67,14.67-26.06,14.67s-26.06-6.57-26.06-14.67,11.67-14.66,26.06-14.66S1404.54,535.19,1404.54,543.29Z"/><path class="cls-23" d="M1382.85,540.84c0,1.35-2,2.45-4.37,2.45s-4.37-1.1-4.37-2.45,2-2.46,4.37-2.46S1382.85,539.48,1382.85,540.84Z"/><rect class="cls-6" x="1374.11" y="398.42" width="8.73" height="142.41"/><path class="cls-25" d="M1402.81,307.37c9.6-16.07,16.27-8.65,18.07-6.06-.15-.68-.27-1.35-.48-2-3.45-11-42-34.54-52.1-28.7-12.39,7.19-16,21.21-18.51,27.58-3.28,8.46.71,13.81,2.93,19.31,4,9.87,1.81,15-.46,30.27-1.18,7.95-7.94,20.46-7.94,51,0,.12,0,.24,0,.36.14,5.68,4.31,11.64,12.4,16.31,13.71,7.92,33.81,9.38,47.12,3.88a211.1,211.1,0,0,0-10.18-52.13C1388.67,351.31,1391.19,326.82,1402.81,307.37Z"/><path class="cls-26" d="M1406.06,366.46c-2.77-11.95-2.83-14.54-.65-25.51,2.1-10.52,18.81-23.62,15.47-39.64-1.8-2.59-8.47-10-18.07,6.06-11.62,19.45-14.14,43.94-9.11,59.76a211.1,211.1,0,0,1,10.18,52.13,31.44,31.44,0,0,0,3.69-1.77C1413.75,413.92,1409.44,381,1406.06,366.46Z"/><path class="cls-25" d="M1384.58,261.45c0,3.51-.48,9.77-6.18,10.64s-12.36,16.75,4.37,22.46,27.89-6.52,27.89-6.52-6.8-5.14-7.85-13.88c-.88-7.32,0-10.69,0-10.69Z"/><path class="cls-27" d="M1399.66,258.69c3.81,2.2,4.22,5.52.93,7.42s-9,1.67-12.86-.53-4.22-5.52-.92-7.42S1395.86,256.49,1399.66,258.69Z"/><path class="cls-27" d="M1372.15,270.28s-16.27,15-20.23,34.67c-1.53,7.62,7.25,20,4.62,35.38s-9.75,32.68-8.87,67.4a33.63,33.63,0,0,0,7.45,6.64c-.17-7.75.45-54.93,4.71-71.19s-4-23.81.22-37,11.83-27.43,19.94-34C1379,269.65,1372.15,270.28,1372.15,270.28Z"/><path class="cls-30" d="M1399.9,351.41s11.32-5.37,13.62-1.28,5.73,24.27-7.24,24.68S1399.9,351.41,1399.9,351.41Z"/><path class="cls-31" d="M1403.88,353.45c.16-3.47.7-11.38,4.09-18.8-6.9.82-11-2.35-13-9.57-3.36-12.08,7.44-30.61,20.34-32.91l-6.76-6.13s-13.14-.79-28.35,12.86c-14.19,12.73-14.52,1.65-11.2-8.71,3.67-11.43,12.89-19.75,12.89-19.75s-5.36-3.07-9.73-.16c-7.68,5.14-17.56,17.73-21.59,25.79-4.4,8.81-2,12.15-.38,22.28,2.59,16,.25,24.07-3.86,40.76-5.06,20.58-2.91,91-2.91,91s24.54,21.64,48,19.56c17-1.51,25.5-12.63,25.5-12.63s-1.52-60.81-4.13-71.43C1409.38,371.71,1403.5,362,1403.88,353.45Z"/><path class="cls-30" d="M1387.84,447.25s2.78-18.4,10.16-12.77-2.62,14.33-2.62,14.33,9,2.05,7.95,8.71-9.45,0-9.45,0,.25,7.41-4.37,8.31-3.08-10.62-3.08-10.62-12.59-.43-10.75-5.56C1379.19,439.85,1387.84,447.25,1387.84,447.25Z"/><path class="cls-32" d="M1392.06,449.64c-1.53-1.36-4.71.45-2.61,3.78S1394.62,451.93,1392.06,449.64Z"/><path class="cls-30" d="M1383.45,435.12c-1.25.42-1,4.48,1.4,3.33S1386.13,434.22,1383.45,435.12Z"/><path class="cls-30" d="M1349.07,433.27c-1.25.42-1,4.48,1.41,3.33S1351.76,432.38,1349.07,433.27Z"/><path class="cls-30" d="M1371.33,425.71c-1.25.42-1,4.48,1.41,3.33S1374,424.82,1371.33,425.71Z"/><path class="cls-30" d="M1407.64,402.16c-1.25.42-1,4.48,1.4,3.33S1410.32,401.27,1407.64,402.16Z"/><path class="cls-30" d="M1354.83,448.39c-.92-.94-4.48,1-2.38,2.72S1356.81,450.42,1354.83,448.39Z"/><path class="cls-30" d="M1366.91,412.14c.52-1.21-2.67-3.74-3.42-1.15S1365.8,414.74,1366.91,412.14Z"/><path class="cls-30" d="M1410.38,436.33c.51-1.21-2.68-3.74-3.43-1.15S1409.26,438.94,1410.38,436.33Z"/><path class="cls-30" d="M1407.64,447.5c-1.25.42-1,4.48,1.4,3.33S1410.32,446.61,1407.64,447.5Z"/><path class="cls-30" d="M1360.54,438.65s-3-8.52,2.56-8.91,2.3,8.91,2.3,8.91,6.53.05,6.91,3.89-7,1.92-7,1.92,4,8.07-1.48,8.19-3.38-9-3.38-9-6.53,1.53-6.66-2.5S1360.54,438.65,1360.54,438.65Z"/><path class="cls-30" d="M1401.94,417.71s6.26-5.59,7.55-.22c1.19,5-4.16,5.85-4.16,5.85s1.28,4.76-2.06,6.7-4.66-5.61-4.66-5.61-5.71,6.93-8.07,2,6.75-6.79,6.75-6.79-4.09-5.31-.48-7.09S1401.94,417.71,1401.94,417.71Z"/><path class="cls-30" d="M1351.8,417.58s-3.68-8.06,2-7.68,1.84,7.3,1.84,7.3,7.05-.51,7.09,3.07-6.16,2.28-6.16,2.28,1.33,7.83-4.18,6.55-1.4-6.55-1.4-6.55-4.48.92-4.74-3S1351.8,417.58,1351.8,417.58Z"/><path class="cls-32" d="M1363,440c-1.1-.13-2.25.77-1.35,2s1.73,1.08,2.1,0C1364.5,440,1363,440,1363,440Z"/><path class="cls-32" d="M1401.58,419.87c-1.1-.13-2.25.76-1.35,2s1.73,1.09,2.1,0C1403,419.85,1401.58,419.87,1401.58,419.87Z"/><path class="cls-32" d="M1354.06,419.27c-1.1-.13-2.25.77-1.35,2.05s1.73,1.08,2.1,0C1355.52,419.26,1354.06,419.27,1354.06,419.27Z"/><path class="cls-30" d="M1349,348.08s10.6,14.15,32.32,16.33c15.83,1.59,23.58-3.29,23.58-3.29l-.92-4.84s-19.16,4.09-30.25,1.28a48.33,48.33,0,0,1-23.65-14.72Z"/><path class="cls-30" d="M1381.88,270.44s-15,12.61-19.3,26.89c-4.6,15.17.52,29.76.52,29.76s10.69-17.5,18.78-24.36,28.78-14.7,28.78-14.7l-3.68-3.87s-20.53,7.72-25.1,10.06a105.67,105.67,0,0,0-11.3,7.34s.68-10.82,4.92-18.24A111.29,111.29,0,0,0,1381.88,270.44Z"/><path class="cls-23" d="M1221,444.07c0,8.1-11.67,14.67-26.06,14.67s-26.06-6.57-26.06-14.67,11.67-14.66,26.06-14.66S1221,436,1221,444.07Z"/><rect class="cls-24" x="1168.86" y="440.4" width="52.11" height="4.18"/><path class="cls-6" d="M1221,441.17c0,8.1-11.67,14.67-26.06,14.67s-26.06-6.57-26.06-14.67,11.67-14.66,26.06-14.66S1221,433.07,1221,441.17Z"/><path class="cls-23" d="M1199.29,438.72c0,1.35-2,2.45-4.37,2.45s-4.36-1.1-4.36-2.45,2-2.46,4.36-2.46S1199.29,437.36,1199.29,438.72Z"/><rect class="cls-6" x="1190.56" y="296.3" width="8.73" height="142.41"/><path class="cls-33" d="M1236.61,196.56s-.53,52.34,0,65.23,1.15,22.27,1.15,22.27-6.83,8.29-16.78,8.2-17.27-3.52-21.94-28.13S1236.61,196.56,1236.61,196.56Z"/><path class="cls-34" d="M1219.25,205.25c9.6-16.07,16.27-8.65,18.07-6.06-.15-.68-.27-1.35-.48-2-3.45-11-42-34.54-52.1-28.7-12.39,7.19-16,21.21-18.51,27.58-3.28,8.46-1.83,14.7.39,20.2,4,9.87,4.35,14.11,2.08,29.39-1.18,7.94-7.94,20.45-7.94,51,0,.12,0,.24,0,.36.14,5.69,4.31,11.64,12.4,16.31,13.71,7.92,33.81,9.38,47.12,3.88A211.1,211.1,0,0,0,1210.14,265C1205.11,249.19,1207.63,224.7,1219.25,205.25Z"/><path class="cls-23" d="M1232.74,301.94h0c-.12-16.44-6.86-23-10.24-37.6-2.77-11.94-2.83-14.54-.65-25.51,2.1-10.51,18.81-23.62,15.47-39.64-1.8-2.59-8.47-10-18.07,6.06-11.62,19.45-14.14,43.94-9.11,59.76a211.1,211.1,0,0,1,10.18,52.13,31.44,31.44,0,0,0,3.69-1.77C1230.19,311.8,1233,307,1232.74,301.94Z"/><path class="cls-34" d="M1201,159.33c0,3.51-.48,9.77-6.18,10.64s-12.36,16.75,4.37,22.46,27.89-6.52,27.89-6.52-6.8-5.13-7.85-13.87c-.88-7.33,0-10.7,0-10.7Z"/><path class="cls-35" d="M1216.1,156.57c3.81,2.2,4.22,5.52.93,7.43s-9,1.66-12.86-.54-4.22-5.52-.92-7.42S1212.3,154.37,1216.1,156.57Z"/><path class="cls-35" d="M1188.59,168.16s-16.27,15-20.23,34.67c-1.53,7.62,7.25,20,4.62,35.38s-9.75,32.68-8.87,67.4a33.91,33.91,0,0,0,7.45,6.65c-.17-7.76.45-54.94,4.71-71.2s-4-23.81.22-37,11.83-27.43,19.94-34C1195.39,167.53,1188.59,168.16,1188.59,168.16Z"/><path class="cls-36" d="M1190.45,166.24s-14,7.58-11.29,27.71c2.81,21.2,26.34,13.35,34.54,5.14s12.76-12.58,17.62-9a17.29,17.29,0,0,1,5.29,6.48s1.19-14.83-12.88-18.89-21.31,15.49-30,10.66c-5.67-3.16-.4-14.17,5-20.41C1198.14,164.71,1193.66,163.49,1190.45,166.24Z"/><path class="cls-33" d="M1181.55,180.42s-4.6,18.67,7,22.41,19.09-2.2,19.09-2.2-16,3-22.4-5.42S1181.55,180.42,1181.55,180.42Z"/><path class="cls-33" d="M1190.56,194s5.91,5,17.12,0c11.57-5.17,20.89-8.69,20.89-8.69s-3.3-4.83-12.82.32C1208.49,189.5,1197.08,194.5,1190.56,194Z"/><polygon class="cls-3" points="164.15 959.88 164.15 999.5 834.68 1392.62 834.68 1346.62 164.15 959.88"/><polygon class="cls-22" points="806.35 108.4 806.35 500.15 923.04 431.61 923.04 32.68 806.35 108.4"/><g class="cls-2"><polygon class="cls-6" points="806.33 100.06 806.35 108.4 880.3 151.37 880.28 143.04 806.33 100.06"/><polygon class="cls-12" points="880.28 143.04 880.3 151.37 997.01 83.99 996.99 75.65 880.28 143.04"/><polygon class="cls-15" points="806.33 100.06 880.28 143.04 996.99 75.65 923.04 32.68 806.33 100.06"/></g><g class="cls-2"><polygon class="cls-6" points="806.33 252.02 806.35 260.35 880.3 303.33 880.28 294.99 806.33 252.02"/><polygon class="cls-12" points="880.28 294.99 880.3 303.33 997.01 235.94 996.99 227.61 880.28 294.99"/><polygon class="cls-15" points="806.33 252.02 880.28 294.99 996.99 227.61 923.04 184.63 806.33 252.02"/></g><g class="cls-2"><polygon class="cls-6" points="806.33 403.97 806.35 412.31 880.3 455.29 880.28 446.95 806.33 403.97"/><polygon class="cls-12" points="880.28 446.95 880.3 455.29 997.01 387.9 996.99 379.57 880.28 446.95"/><polygon class="cls-15" points="806.33 403.97 880.28 446.95 996.99 379.57 923.04 336.59 806.33 403.97"/></g><g class="cls-37"><polygon class="cls-38" points="494.2 756.96 644.93 844.55 933.71 677.83 782.98 590.23 494.2 756.96"/></g><polygon class="cls-21" points="644.86 802.12 644.98 843.83 657.17 836.78 657.06 795.08 644.86 802.12"/><polygon class="cls-39" points="879.75 618.03 879.87 659.73 921.51 683.93 921.4 642.23 879.75 618.03"/><polygon class="cls-21" points="921.4 642.23 921.51 683.93 933.71 676.89 933.59 635.19 921.4 642.23"/><polygon class="cls-39" points="603.22 777.92 603.34 819.63 644.98 843.83 644.86 802.12 603.22 777.92"/><polygon class="cls-39" points="495.75 715.4 495.87 757.1 537.51 781.3 537.39 739.6 495.75 715.4"/><polygon class="cls-21" points="537.39 739.6 537.51 781.3 549.7 774.26 549.58 732.56 537.39 739.6"/><polygon class="cls-15" points="494.2 599.88 494.53 718.03 645.26 805.62 644.93 687.47 494.2 599.88"/><polygon class="cls-12" points="644.93 687.47 645.26 805.62 934.04 638.89 933.71 520.74 644.93 687.47"/><polygon class="cls-40" points="494.2 599.88 644.93 687.47 933.71 520.74 782.98 433.15 494.2 599.88"/><polygon class="cls-18" points="933.71 520.74 644.93 687.47 645.26 703.34 933.75 536.44 933.71 520.74"/><polygon class="cls-19" points="494.2 599.88 494.2 615.55 645.26 703.34 644.93 687.47 494.2 599.88"/><polygon class="cls-21" points="933.71 570.92 934.04 577.99 645.09 744.75 645.09 737.49 933.71 570.92"/><polygon class="cls-21" points="494.34 649.9 494.36 657.16 645.09 744.75 645.09 737.49 494.34 649.9"/><path class="cls-22" d="M627.35,1014.15c-6-3.43-14.29-2.62-22.79,2.3l-1.86,1.07-15.13-8.73V888.71c7.74-6.43,12.94-13.26,12.94-19.33l-.56-72s8.83-13.66,8.83-20.32l-2.6-38.43c-.17-3.31-1.2-6.79-6.28-5.76l-12.33,2.52v-3.65a1.48,1.48,0,0,1,0,.19,1.64,1.64,0,0,0-1-1.65,5.49,5.49,0,0,0-5,0l-.28.2-.43-6.46c-.17-3.31-1.21-6.8-6.28-5.76l-17.39,3.55-16.79-9.7c-.26-7.16-.62-12.64-1.1-14a4.71,4.71,0,0,0-2.89-2.48,10.92,10.92,0,0,0-4.84-.71l-18.88,1.22-11.16-6.44c-.26-7-.61-12.36-1.08-13.74a4.69,4.69,0,0,0-2.9-2.47,10.91,10.91,0,0,0-4.83-.72L474.29,674l-11.51-6.65c-.28-7.88-.67-13.93-1.19-15.45-.39-1.15-1.66-2.16-3.65-2.86l-2.33-.28a4.58,4.58,0,0,0-.66-.08l-1.65-.2-20.87,1.35-10.41-6c-.28-7.93-.66-14-1.19-15.56-.39-1.14-1.66-2.16-3.65-2.85a11.78,11.78,0,0,0-4.65-.57l-21,1.36-10-5.75a138.57,138.57,0,0,0-1-15h0a5.82,5.82,0,0,0-.19-.83c-.39-1.14-1.66-2.15-3.65-2.85a11.8,11.8,0,0,0-4.65-.57l-21.44,1.39-35.06-20.24v-7.6a.93.93,0,0,1,0,.22,1.6,1.6,0,0,0-1-1.67,5.49,5.49,0,0,0-5,0,1.77,1.77,0,0,0-1,1.42h0v48.77L280,654.69a25.15,25.15,0,0,0-5.9,13.21l-9.85,50.9a56.33,56.33,0,0,0-.51,18.41l13.14,66.37c.64,2.14,3,2.83,5.86,2.56h0c.28,0,.56-.06.84-.11h0c5.1-.79,11.12-4.37,10.92-8.1l-5.06-49.16a90.32,90.32,0,0,1,4.39-38.5l.85-2.51h0c0,.38,0,.76.05,1.14l.06,1.48c0,.43,0,.86,0,1.29s0,.91,0,1.38l0,1.35,0,1.35,0,1.37c0,.46,0,.92,0,1.38s0,.92,0,1.38,0,.94,0,1.41,0,.91,0,1.37v2.8c0,.66,0,1.32,0,2s0,1.4,0,2.1c0,.46,0,.92,0,1.38s0,1,0,1.52,0,.86,0,1.29l0,1.52c0,.43,0,.87,0,1.3l0,1.51,0,1.28,0,1.51,0,1.29c0,.49,0,1,0,1.48l0,1.31c0,.47,0,.94,0,1.41s0,.81,0,1.22l-.09,2.95,0,1.06c0,.54,0,1.07-.05,1.6,0,.33,0,.66,0,1l-.06,1.71c0,.28,0,.56,0,.84,0,.62-.05,1.24-.07,1.85,0,.14,0,.27,0,.41-.14,3.89-.27,7.57-.38,10.93,0,.22,0,.43,0,.64,0,.51,0,1-.05,1.5,0,.25,0,.48,0,.72l0,1.33c0,.26,0,.51,0,.76s0,.8,0,1.18,0,.5,0,.75,0,.76,0,1.14c0,.22,0,.44,0,.66,0,.39,0,.77,0,1.15v.53c0,.54,0,1.06,0,1.56a3.84,3.84,0,0,0,.07.69c0,.11.07.21.1.32s.07.21.11.31a3.3,3.3,0,0,0,.23.41.67.67,0,0,0,.09.14,7,7,0,0,0,4.09,2.4,35.69,35.69,0,0,0,10.15-.23V873.7l-20.27,11.71c-15.18,8.76-27.07,27.64-27.07,43v12.21a3.74,3.74,0,0,0,7.48,0V928.38c0-12,9.81-27.8,21.75-35.52l264.5,152.7c-12.72,9.65-22.09,26-22.09,39.66v12.21a3.74,3.74,0,0,0,7.48,0v-12.21c0-12.49,10.68-29.21,23.33-36.5l44.67-25.8c6.13-3.53,11.7-4.37,15.31-2.29s4.27,6.4,4.27,9.7v12.21a3.74,3.74,0,0,0,7.48,0v-12.21C635.36,1022.88,632.52,1017.13,627.35,1014.15Zm-28,5.3-11.78,6.8v-13.6ZM335.19,866.94l10,5.78-41.49,23.94-10-5.77Zm21.05,8.29-17.62-10.18C344,862.42,348.75,862,352,863.8c3.53,2,4.27,6.4,4.27,9.7Zm-8-.42a.47.47,0,0,0,.18-.21l7.78,4.5v2.44l-39.38,22.72-9.8-5.66Zm8,10.6v.3a3.74,3.74,0,0,0,7.48,0v-2.3l7.8,4.5L330,911.85l-9.81-5.66Zm18.35,4.6a.61.61,0,0,0,.18-.21l9.9,5.71-41.5,23.94-9.8-5.66Zm13.16,7.59a.53.53,0,0,0,.18-.21l9.9,5.72-41.5,23.94-9.81-5.67Zm13.16,7.6a.94.94,0,0,0,.18-.21L411,910.7l-41.49,23.94L359.68,929Zm13.15,7.59a.53.53,0,0,0,.18-.21l9.9,5.72-41.5,23.94-9.8-5.67Zm13.16,7.6a.74.74,0,0,0,.18-.21l9.9,5.71-41.5,23.94L386,944.17ZM440.37,928a.56.56,0,0,0,.19-.21l9.89,5.72L409,957.43l-9.81-5.66Zm13.16,7.6a.61.61,0,0,0,.18-.21l9.9,5.71L422.11,965l-9.8-5.66Zm13.16,7.6a.94.94,0,0,0,.18-.21l9.9,5.71-41.5,23.94L425.46,967Zm13.15,7.59a.53.53,0,0,0,.18-.21l9.9,5.72-41.5,23.94-9.8-5.67Zm13.16,7.6a.61.61,0,0,0,.18-.21l9.9,5.71-41.5,23.94-9.81-5.66ZM506.16,966a.76.76,0,0,0,.18-.21l9.89,5.72-41.49,23.94-9.81-5.66Zm13.15,7.6a.61.61,0,0,0,.18-.21l9.9,5.71L487.89,1003l-9.8-5.66Zm13.16,7.59a.54.54,0,0,0,.18-.21l9.9,5.72-41.5,23.94-9.81-5.66Zm13.15,7.6a.77.77,0,0,0,.19-.21l9.89,5.71-41.49,23.94-9.81-5.66Zm13.16,7.6a.61.61,0,0,0,.18-.21l9.9,5.71-41.5,23.94-9.8-5.66Zm13.16,7.59a.63.63,0,0,0,.18-.21l8.43,4.87v1.69l-40,23.1-9.81-5.67ZM336.14,602.46h0Zm.18.25a3,3,0,0,1,.19.35l0,.09A3,3,0,0,0,336.32,602.71ZM587.4,732.32a.75.75,0,0,0,.1-.2A.75.75,0,0,1,587.4,732.32Zm-.29.39a1.94,1.94,0,0,0,.2-.21A1.94,1.94,0,0,1,587.11,732.71Zm-.12.13a2.58,2.58,0,0,1-.45.32A2.58,2.58,0,0,0,587,732.84Zm-34.74-10-2.11.43h0l-2.7.55v0l-6.67,1.43c-.07-3.16-.14-6.28-.23-9.21Zm-45.58-26.32-4.09.27a7.12,7.12,0,0,0-.83-.38c0-.94-.05-1.87-.08-2.78Zm-38.4-22.17-4.54.29c-.23-.12-.47-.23-.74-.34,0-1-.05-2-.08-3Zm-41.86-24.17-4.18.27c0-.92-.05-1.83-.08-2.73Zm-40.92-23.63-3.75.25c0-.83-.05-1.65-.07-2.45Zm-45.74-23.3a13.79,13.79,0,0,0-4.23-1.4l.17.14-.31-.22h0l-2.25-1.3a3.58,3.58,0,0,0-3.38.15v-6.23l14.81,8.55ZM327.7,593.18v8.59L325.55,603a11.63,11.63,0,0,0-4.62,5.76.43.43,0,0,1,0,0c-1.63.71-3.94,3.53-5.4,6.37V586.16Zm-12.34-17.89a1,1,0,0,0,.11-.23A1,1,0,0,1,315.36,575.29Zm-.3.39a2.4,2.4,0,0,0,.22-.24A2.4,2.4,0,0,1,315.06,575.68Zm-.1.11a2.55,2.55,0,0,1-.45.31A2.55,2.55,0,0,0,315,575.79Zm-6.38-.74a1.22,1.22,0,0,1,0-.17A1.22,1.22,0,0,0,308.58,575.05Zm.52.73a.6.6,0,0,1-.11-.12A.6.6,0,0,0,309.1,575.78Zm-.32-.35a.55.55,0,0,1-.08-.15A.55.55,0,0,0,308.78,575.43Zm6.76,242.37,1.87,9.43a3.75,3.75,0,0,0,3.32,2.5h0a9.68,9.68,0,0,0,2.54.06h0c.27,0,.55-.06.83-.11h0c5.1-.79,11.12-4.37,10.92-8.1l-4.33-42.08c1.51-.59,2.92-1.17,4.24-1.72,0,.71,0,1.42-.07,2.12v.16c-.17,4.87-.34,9.44-.47,13.54,0,.15,0,.29,0,.44l-.06,1.69c0,.21,0,.43,0,.64,0,.46,0,.92,0,1.37,0,.26,0,.51,0,.76l0,1.19c0,.25,0,.49,0,.73s0,.77,0,1.15c0,.22,0,.44,0,.65,0,.4,0,.79,0,1.17v.52c0,.54,0,1.06,0,1.56h0a3.84,3.84,0,0,0,.07.69c0,.11.07.22.1.32s.07.21.11.31a4.36,4.36,0,0,0,.23.42l.09.13a7,7,0,0,0,4.09,2.4,36.93,36.93,0,0,0,11.09-.38l8.22,41.5c1.83,6.11,18,.42,17.64-5.64l-4.34-42.17c1.5-.59,2.92-1.17,4.23-1.73-.31,9.42-.63,18-.74,24.22v.23c0,.11,0,.22,0,.32v.18c0,.36,0,.71,0,1.05v.22c0,.11,0,.2,0,.3v1.26a4.05,4.05,0,0,0,.07.7c0,.11.07.21.1.32l.11.3a3.42,3.42,0,0,0,.23.42l.09.14a6.93,6.93,0,0,0,4.09,2.39c4.79.72,10.7-.07,16.66-1.52l4.5,32.82c1.35,1.79,6.74.6,11.55-1.6,4.33-2,8.2-4.78,8.2-6.94l-3.25-31.52,2.89-1.26c-.26,7.18-.47,13.37-.47,17.76,0,3.72,6.11,5.18,14.28,4.48l5.66,41.23c1.35,1.79,6.73.6,11.54-1.6,4.34-2,8.2-4.78,8.2-6.94l-1.45-14.14h0l-.11-1h0l-2.39-23.23c1.31-.6,2.6-1.25,3.86-1.94-.35,10.37-.73,19.47-.73,25.34,0,6.88,20.85,6,37.09-1.9.06,12.68.11,24.65.11,30,0,8.5,11.26,8.77,25.29,4.55,0,4.25,0,7.77,0,10.07,0,15.18,35.95,4.1,59.48-12v110.74L363.72,879.55v-6c0-7.45-2.84-13.2-8-16.18-6-3.46-14.29-2.62-22.79,2.3l-17.38,10Zm244.35,224.44q-1,.57-1.95,1.2l-14.07-8.12,36.68-21.16v16.15Z"/><g id="_16" data-name="16"><path class="cls-41" d="M274.58,944.33a3.75,3.75,0,0,0,3.74-3.74V928.38c0-12.48,10.68-29.2,23.32-36.5l44.67-25.79c6.13-3.53,11.71-4.36,15.32-2.29s4.27,6.4,4.27,9.7v12.21a3.74,3.74,0,0,0,7.48,0V873.5c0-7.45-2.85-13.2-8-16.18-6-3.46-14.29-2.62-22.79,2.3L297.9,885.41c-15.18,8.76-27.06,27.64-27.06,43v12.21A3.74,3.74,0,0,0,274.58,944.33Z"/><g id="Axonometric_Cylinder" data-name="Axonometric Cylinder"><path id="Cylinder_face" data-name="Cylinder face" class="cls-8" d="M324.17,576.1c1.37-.79,1.37-2.07,0-2.86a5.51,5.51,0,0,0-5,0c-1.37.79-1.37,2.07,0,2.86A5.45,5.45,0,0,0,324.17,576.1Z"/><path id="Cylinder_body" data-name="Cylinder body" class="cls-42" d="M318.17,574.65V873.89a1.76,1.76,0,0,0,1,1.45,5.51,5.51,0,0,0,5,0,1.77,1.77,0,0,0,1-1.41V574.69a1.77,1.77,0,0,1-1,1.41,5.45,5.45,0,0,1-5,0A1.75,1.75,0,0,1,318.17,574.65Z"/></g><path class="cls-43" d="M345.11,863.8a.84.84,0,0,1,.85-.08L614.74,1018.9v3.86L344.27,866.61a.84.84,0,0,1-.34-.76A2.6,2.6,0,0,1,345.11,863.8Z"/><path class="cls-8" d="M312.28,898.08c-.11-.2-.22-.4-.34-.6l44.31-25.56a.82.82,0,0,1,.84.08,2.63,2.63,0,0,1,1.18,2,.83.83,0,0,1-.33.76l-43.83,25.28A23.34,23.34,0,0,0,312.28,898.08Z"/><path class="cls-8" d="M325.43,905.68l-.33-.6,44.3-25.56a.81.81,0,0,1,.85.08,2.6,2.6,0,0,1,1.18,2,.84.84,0,0,1-.34.76l-43.82,25.28A23.45,23.45,0,0,0,325.43,905.68Z"/><path class="cls-8" d="M338.59,913.28c-.11-.21-.22-.41-.34-.61l44.31-25.56a.82.82,0,0,1,.84.08,2.62,2.62,0,0,1,1.19,2,.85.85,0,0,1-.34.77l-43.82,25.28A22,22,0,0,0,338.59,913.28Z"/><path class="cls-8" d="M351.75,920.87c-.12-.2-.22-.41-.34-.6l44.3-25.56a.84.84,0,0,1,.85.08,2.6,2.6,0,0,1,1.18,2.05.83.83,0,0,1-.34.76l-43.82,25.28A23.34,23.34,0,0,0,351.75,920.87Z"/><path class="cls-8" d="M364.9,928.47l-.33-.61,44.3-25.56a.86.86,0,0,1,.85.08,2.63,2.63,0,0,1,1.18,2,.85.85,0,0,1-.34.77l-43.82,25.28A22,22,0,0,0,364.9,928.47Z"/><path class="cls-8" d="M378.06,936.06c-.11-.2-.22-.4-.34-.6L422,909.9a.82.82,0,0,1,.84.08,2.62,2.62,0,0,1,1.19,2,.83.83,0,0,1-.34.76l-43.83,25.28A21.82,21.82,0,0,0,378.06,936.06Z"/><path class="cls-8" d="M391.21,943.66c-.11-.2-.21-.41-.33-.61l44.3-25.55a.83.83,0,0,1,.85.07,2.64,2.64,0,0,1,1.18,2.06.84.84,0,0,1-.34.76l-43.82,25.28A23.45,23.45,0,0,0,391.21,943.66Z"/><path class="cls-8" d="M404.37,951.25c-.11-.2-.22-.4-.34-.6l44.31-25.56a.82.82,0,0,1,.84.08,2.62,2.62,0,0,1,1.19,2.05.82.82,0,0,1-.34.76l-43.82,25.28A25,25,0,0,0,404.37,951.25Z"/><path class="cls-8" d="M417.53,958.85c-.11-.2-.22-.41-.34-.6l44.31-25.56a.8.8,0,0,1,.84.08,2.6,2.6,0,0,1,1.18,2.05.84.84,0,0,1-.33.76l-43.83,25.28A23.34,23.34,0,0,0,417.53,958.85Z"/><path class="cls-8" d="M430.68,966.45l-.33-.61,44.3-25.56a.84.84,0,0,1,.85.08,2.63,2.63,0,0,1,1.18,2,.85.85,0,0,1-.34.77l-43.82,25.28A22,22,0,0,0,430.68,966.45Z"/><path class="cls-8" d="M443.84,974c-.11-.2-.22-.41-.34-.6l44.31-25.56a.82.82,0,0,1,.84.08,2.59,2.59,0,0,1,1.19,2,.83.83,0,0,1-.34.76l-43.82,25.28A23.45,23.45,0,0,0,443.84,974Z"/><path class="cls-8" d="M457,981.64c-.11-.2-.21-.41-.33-.61L501,955.48a.83.83,0,0,1,.85.07A2.63,2.63,0,0,1,503,957.6a.85.85,0,0,1-.34.77l-43.82,25.28A21.92,21.92,0,0,0,457,981.64Z"/><path class="cls-8" d="M470.15,989.23l-.33-.6,44.3-25.56a.84.84,0,0,1,.85.08,2.63,2.63,0,0,1,1.18,2.05.83.83,0,0,1-.34.76L472,991.24A23.45,23.45,0,0,0,470.15,989.23Z"/><path class="cls-8" d="M483.31,996.83c-.11-.2-.22-.41-.34-.61l44.31-25.55a.81.81,0,0,1,.84.07,2.62,2.62,0,0,1,1.19,2.06.84.84,0,0,1-.34.76l-43.83,25.28A21.82,21.82,0,0,0,483.31,996.83Z"/><path class="cls-8" d="M496.46,1004.42l-.33-.6,44.3-25.56a.84.84,0,0,1,.85.08,2.63,2.63,0,0,1,1.18,2,.82.82,0,0,1-.34.76l-43.82,25.28A25,25,0,0,0,496.46,1004.42Z"/><path class="cls-8" d="M509.62,1012c-.11-.2-.22-.41-.34-.6l44.31-25.56a.8.8,0,0,1,.84.08,2.59,2.59,0,0,1,1.19,2,.84.84,0,0,1-.34.76L511.46,1014A23.45,23.45,0,0,0,509.62,1012Z"/><path class="cls-8" d="M522.78,1019.62c-.11-.21-.22-.41-.34-.61l44.31-25.56a.82.82,0,0,1,.84.08,2.63,2.63,0,0,1,1.18,2.05.83.83,0,0,1-.34.77l-43.82,25.28A21.94,21.94,0,0,0,522.78,1019.62Z"/><path class="cls-8" d="M535.93,1027.21l-.33-.6,44.3-25.56a.84.84,0,0,1,.85.08,2.62,2.62,0,0,1,1.18,2,.83.83,0,0,1-.34.76l-43.82,25.28A23.45,23.45,0,0,0,535.93,1027.21Z"/><path class="cls-8" d="M549.09,1034.81c-.11-.2-.22-.41-.34-.61l44.31-25.55a.81.81,0,0,1,.84.07,2.62,2.62,0,0,1,1.19,2.06.84.84,0,0,1-.34.76l-43.82,25.28A23.45,23.45,0,0,0,549.09,1034.81Z"/><path class="cls-44" d="M300.28,889.68a.84.84,0,0,1,.85-.08L569.9,1044.78v3.87L299.44,892.49a.83.83,0,0,1-.34-.76A2.63,2.63,0,0,1,300.28,889.68Z"/><g id="_1" data-name="1"><path class="cls-8" d="M303.33,781.82c0,2.07,1.77,3.49,4.69,4.27,16.37,2.43,45.75-12.48,45.75-12.48l.39-.21,4.69-2.59c14.35-8,16.58-15.15,16.37-21.72-1.12-34.72-3.31-65.5,10.09-135.15.36-1.91.85-3.88.44-5.3a3.65,3.65,0,0,0-2.9-2.38c-3.65-.93-8.27.2-12.79,1.37-7.17,1.86-14.47,3.86-22,8-12.76,7-24.92,19.36-36.57,31.32-2.3,2.37-6,6-6.12,9,0,1.19-.34,4.54,0,5.46,0,0-3.09,21.25-1.68,36C306.21,723.73,303.33,765,303.33,781.82Z"/><path class="cls-45" d="M352,608.51a7.71,7.71,0,0,0-7.13-2.34l-3.26.62a7.89,7.89,0,0,0-2.68,1.07l-6.64,4.22a7.72,7.72,0,0,0-3.56,6.08l-.27,4.78a7.57,7.57,0,0,0,.27,2.5l1.12,4a7.66,7.66,0,0,0,3.21,4.39l4.46,2.91c3.94,3,7.08,8.65,11.85,11.39l4.72-21.7,3.39-3.93-3.86-11.27A7.73,7.73,0,0,0,352,608.51Z"/><g class="cls-2"><path class="cls-46" d="M386.91,605a.83.83,0,0,0-1.13-.31L289,660.53a.83.83,0,0,0,.42,1.54.77.77,0,0,0,.41-.11l96.74-55.85A.82.82,0,0,0,386.91,605Z"/><path class="cls-47" d="M385.52,602a4.94,4.94,0,0,0-2.65-.63l-38.33,2.76.5,3.65,42.73-4.47Z"/><path class="cls-47" d="M342.79,600.45a3.79,3.79,0,0,0-3.81.38L335.21,603a11.74,11.74,0,0,0-5,7,24.91,24.91,0,0,0-.51,2.69L291.46,654.1a22.52,22.52,0,0,0-4.83,9l2.24,1.31,4.67-6.41L345,601.75Z"/><path class="cls-46" d="M385.11,602.63l-38.32,2.76a11.21,11.21,0,0,0-.53-2.08c-.73-2-2.78-2.47-5-1.17l-3.78,2.17a11.82,11.82,0,0,0-5,7,20.13,20.13,0,0,0-.51,2.68L293.71,655.4a22.77,22.77,0,0,0-4.84,9l51.28-54.84L390,606A4.87,4.87,0,0,0,385.11,602.63Z"/></g><path class="cls-8" d="M324.59,616.38,289.7,654.69a25.15,25.15,0,0,0-5.9,13.21l-9.86,50.9a56.61,56.61,0,0,0-.5,18.41l13.13,66.37c1.83,6.11,18,.42,17.65-5.65l-5.06-49.16a90.32,90.32,0,0,1,4.38-38.5l10.4-30.44,24.24-44.6-7-4.45-5.11-9.91Z"/><path class="cls-8" d="M392.68,676a69,69,0,0,1-.75-9.74c-.07-14.57-.41-57.24-1.94-61.68-.39-1.14-1.65-2.15-3.64-2.85a11.82,11.82,0,0,0-4.65-.57l-32.61,2.12c4.06,8,6.44,16,4.44,23.71l6.37.08L371,667.44l10.17,83c.86,5.22,16.8.78,16.8-6.63Z"/><path class="cls-48" d="M353.15,737.22l-3.24-89.54a1.69,1.69,0,0,1-.92.27c-.07,0,3.31,90.36,3.31,90.36C352.58,738,352.86,737.58,353.15,737.22Z"/><path class="cls-49" d="M362.18,615c-4.43-9-15.19-13.13-17-13.12a3.2,3.2,0,0,1,1,1.22l.63,2.33c2.85,1.85,4.8,8.24,6,13.67.74,10.27-3.41,29.08-3.41,29.08l6.13-15.89Z"/><path class="cls-49" d="M348.83,647.8c-5-3.41-9.15-10.94-12.43-16.24-2.06-4.43-5.12-10.93-5.9-13.17a15.6,15.6,0,0,1,.1-9.67c-2.42,1.06-6.34,6.74-6.76,10.28-.44,3.69,1.82,15.52,1.82,15.52l10.11,5.8Z"/><polygon class="cls-48" points="362.12 614.83 349.26 647.83 325.61 634.25 325.69 635.18 349.27 648.73 349.75 648.62 362.41 615.8 362.12 614.83"/><path class="cls-49" d="M326.87,625.85l-30.05,33.26a16.9,16.9,0,0,0-4,7.79L280.9,721.77a33.4,33.4,0,0,0-.24,13L293.3,806a12.67,12.67,0,0,1-1.69.16L279,735a35.17,35.17,0,0,1,.26-13.6l11.92-54.87a18.76,18.76,0,0,1,4.39-8.56l30.06-33.27Zm63.32-20.46-34.63,2.92.14,1.69,34.72-2.93C390.35,606.4,390.27,605.84,390.19,605.39Zm-2.48-3.1-36.33,2.56.12,1.68,38.1-2.68A5.13,5.13,0,0,0,387.71,602.29ZM289.9,806.08l-12.81-68.86a37.13,37.13,0,0,1,.12-14.25l11.87-58.51a13.75,13.75,0,0,1,3.15-6.25l33.68-37.84-.3-.93-.64-.56-34,38.21a15.35,15.35,0,0,0-3.54,7l-11.88,58.52a38.8,38.8,0,0,0-.12,14.88l12.63,67.93A5.13,5.13,0,0,0,289.9,806.08Z"/><path class="cls-50" d="M378.61,654.35c-2.26,16.73-3.41,30.72-3.92,43.16l6.49,52.92c.33,2,2.85,2.57,5.85,2.12C387,752.55,379.08,711.94,378.61,654.35Z"/><path class="cls-51" d="M351.12,706.65l2.51,67,.82-.44L352,705.61l-.79.94Z"/><path class="cls-52" d="M329.9,732.84c-.53,8.59-3.73,17.19-10.85,25.8L315,757a45.77,45.77,0,0,0,10.85-25.8Z"/><path class="cls-52" d="M374.37,717.45a52.08,52.08,0,0,1-4.93-10.2l-1.75,4a34,34,0,0,0,6.76,12.48C375.24,723.77,375.12,718.52,374.37,717.45Z"/><path class="cls-50" d="M308.75,695l-4.35,12.74c1.14,25.79-1.07,59.35-1.07,74.06,0,1.83,1.41,3.13,3.75,3.95,3.59-21.65,5.65-41.1,4.64-62.85C311.31,714,310,704.56,308.75,695Z"/><polygon class="cls-49" points="369.14 657.66 366.9 658.95 365.95 662.04 364.42 662.93 366.65 655.68 364.41 656.97 362.18 664.23 364.1 663.12 363.36 665.54 365.6 664.25 366.34 661.83 368.19 660.76 369.14 657.66"/></g><g id="_1-2" data-name="1"><path class="cls-53" d="M343.82,805.47c0,2.07,1.77,3.49,4.69,4.27,16.37,2.43,45.75-12.48,45.75-12.48l.39-.21,4.69-2.59c14.36-8,16.58-15.15,16.37-21.72-1.12-34.72-3.31-65.5,10.09-135.15.36-1.91.85-3.88.44-5.3a3.63,3.63,0,0,0-2.9-2.38c-3.65-.93-8.27.2-12.79,1.37-7.17,1.86-14.47,3.86-22,8-12.76,7-24.92,19.36-36.57,31.32-2.3,2.37-6,6-6.12,9,0,1.19-.34,4.54,0,5.46,0,0-3.09,21.25-1.68,36C346.7,747.37,343.82,788.68,343.82,805.47Z"/><path class="cls-54" d="M392.49,632.16a7.71,7.71,0,0,0-7.13-2.34l-3.26.62a7.89,7.89,0,0,0-2.68,1.07l-6.64,4.22a7.72,7.72,0,0,0-3.56,6.08l-.27,4.78a7.84,7.84,0,0,0,.27,2.5l1.12,4a7.63,7.63,0,0,0,3.22,4.39L378,660.4c3.94,3,7.08,8.65,11.85,11.39l4.72-21.7,3.39-3.93-3.86-11.27A7.73,7.73,0,0,0,392.49,632.16Z"/><g class="cls-2"><path class="cls-46" d="M427.4,628.63a.82.82,0,0,0-1.13-.31l-96.74,55.86a.83.83,0,0,0,.42,1.54.77.77,0,0,0,.41-.11l96.74-55.85A.82.82,0,0,0,427.4,628.63Z"/><path class="cls-47" d="M426,625.61a5,5,0,0,0-2.65-.64L385,627.74l.5,3.65,42.73-4.47Z"/><path class="cls-47" d="M383.28,624.1a3.79,3.79,0,0,0-3.81.38l-3.77,2.18a11.74,11.74,0,0,0-5,7,25.53,25.53,0,0,0-.51,2.68L332,677.75a22.52,22.52,0,0,0-4.83,9l2.24,1.31,4.67-6.41,51.5-56.26Z"/><path class="cls-46" d="M425.61,626.28,387.28,629a11.21,11.21,0,0,0-.53-2.08c-.73-2-2.78-2.47-5-1.17L377.94,628a11.79,11.79,0,0,0-5,7,19.82,19.82,0,0,0-.51,2.68L334.2,679.05a22.7,22.7,0,0,0-4.84,9l51.28-54.84,49.84-3.54A4.87,4.87,0,0,0,425.61,626.28Z"/></g><path class="cls-53" d="M365.08,640l-34.89,38.31a25.15,25.15,0,0,0-5.9,13.21l-9.86,50.9a56.61,56.61,0,0,0-.5,18.41l13.13,66.37c1.83,6.11,18,.42,17.65-5.65l-5.15-50a86.69,86.69,0,0,1,4.21-36.93l10.66-31.2,24.24-44.6-7-4.45-5.11-9.91Z"/><path class="cls-53" d="M433.17,699.63a69.1,69.1,0,0,1-.75-9.74c-.07-14.57-.41-57.24-1.94-61.68-.39-1.14-1.65-2.16-3.64-2.85a11.82,11.82,0,0,0-4.65-.57l-32.61,2.11c4.06,8.06,6.44,16,4.44,23.72l6.37.08,11.11,40.39,10.17,83c.86,5.22,16.8.78,16.8-6.63Z"/><path class="cls-25" d="M390.4,671.33a1.69,1.69,0,0,1-.92.27c-.07,0,4.64,125.74,4.64,125.74l.82-.46Z"/><path class="cls-8" d="M367.36,649.5l-30.05,33.26a16.9,16.9,0,0,0-4,7.79l-11.92,54.86a33.45,33.45,0,0,0-.24,13l12.64,71.31a12.67,12.67,0,0,1-1.69.16l-12.62-71.18a35.17,35.17,0,0,1,.26-13.6l11.92-54.87a18.79,18.79,0,0,1,4.39-8.57l30.06-33.26ZM430.68,629,396.05,632l.14,1.68,34.72-2.92C430.84,630.05,430.76,629.49,430.68,629Zm-2.48-3.1-36.33,2.56.12,1.68,38.1-2.68A5.13,5.13,0,0,0,428.2,625.94ZM330.39,829.73l-12.81-68.86a37.13,37.13,0,0,1,.12-14.25l11.87-58.51a13.7,13.7,0,0,1,3.15-6.25L366.4,644l-.3-.93-.64-.56-34,38.21a15.35,15.35,0,0,0-3.54,7L316,746.28a38.86,38.86,0,0,0-.12,14.89l12.63,67.93A5.2,5.2,0,0,0,330.39,829.73Z"/><path class="cls-53" d="M402.67,638.61c-4.43-9-15.19-13.13-17-13.12a3.2,3.2,0,0,1,1,1.22l.63,2.33c2.85,1.85,4.8,8.24,6,13.67.74,10.27-3.41,29.08-3.41,29.08L396,655.9Z"/><path class="cls-53" d="M389.32,671.45c-5-3.41-9.15-10.94-12.43-16.24-2.06-4.43-5.12-10.93-5.9-13.17a15.59,15.59,0,0,1,.1-9.67c-2.42,1.06-6.34,6.74-6.76,10.28-.44,3.69,1.82,15.52,1.82,15.52l10.11,5.8Z"/><polygon class="cls-25" points="402.61 638.48 389.75 671.48 366.1 657.9 366.18 658.83 389.76 672.38 390.24 672.27 402.9 639.45 402.61 638.48"/><path class="cls-50" d="M419.1,678c-2.26,16.73-3.41,30.72-3.92,43.16l6.49,52.92c.33,2,2.85,2.57,5.85,2.12C427.52,776.2,419.57,735.59,419.1,678Z"/><path class="cls-49" d="M414.86,741.1a52.08,52.08,0,0,1-4.93-10.2l-1.75,4a34,34,0,0,0,6.76,12.48C415.73,747.42,415.61,742.16,414.86,741.1Z"/><path class="cls-54" d="M349.24,718.67l-4.35,12.74c1.14,25.79-1.07,59.35-1.07,74.06,0,1.83,1.41,3.13,3.75,3.95,3.59-21.65,5.65-41.11,4.64-62.85C351.8,737.63,350.51,728.21,349.24,718.67Z"/><polygon class="cls-53" points="409.63 681.31 407.39 682.6 406.44 685.69 404.91 686.58 407.14 679.33 404.9 680.62 402.67 687.88 404.59 686.77 403.85 689.19 406.09 687.9 406.83 685.48 408.68 684.41 409.63 681.31"/></g><g id="_1-3" data-name="1"><path class="cls-55" d="M384.58,829.1c0,2.07,1.77,3.49,4.69,4.27C405.64,835.8,435,820.89,435,820.89l.39-.2,4.69-2.6c14.36-8,16.59-15.14,16.37-21.71-1.12-34.72-3.31-65.51,10.09-135.16.36-1.91.85-3.88.44-5.29a3.61,3.61,0,0,0-2.9-2.38c-3.65-.93-8.27.2-12.79,1.37-7.17,1.85-14.47,3.86-22,8-12.76,7-24.92,19.35-36.57,31.32-2.3,2.37-6,6-6.12,9,0,1.18-.34,4.54,0,5.45,0,0-3.09,21.25-1.68,36C387.46,771,384.58,812.32,384.58,829.1Z"/><path class="cls-56" d="M433.25,655.8a7.71,7.71,0,0,0-7.13-2.35l-3.26.63a7.67,7.67,0,0,0-2.68,1.06l-6.64,4.23a7.69,7.69,0,0,0-3.56,6.07l-.27,4.79a7.75,7.75,0,0,0,.27,2.49l1.12,4a7.7,7.7,0,0,0,3.22,4.39l4.45,2.9c3.94,3,7.08,8.65,11.85,11.39l4.72-21.69,3.39-3.94-3.86-11.27A7.6,7.6,0,0,0,433.25,655.8Z"/><g class="cls-2"><path class="cls-46" d="M468.16,652.26A.82.82,0,0,0,467,652l-96.74,55.85a.83.83,0,0,0-.3,1.13.82.82,0,0,0,.72.42.87.87,0,0,0,.41-.11l96.74-55.86A.82.82,0,0,0,468.16,652.26Z"/><path class="cls-47" d="M466.77,649.25a4.94,4.94,0,0,0-2.65-.64l-38.33,2.76.5,3.66L469,650.55Z"/><path class="cls-47" d="M424,647.73a3.82,3.82,0,0,0-3.81.39l-3.77,2.17a11.74,11.74,0,0,0-5,7,24.52,24.52,0,0,0-.51,2.68l-38.22,41.43a22.56,22.56,0,0,0-4.83,9l2.24,1.3,4.67-6.41L426.29,649Z"/><path class="cls-46" d="M466.37,649.92,428,652.68a11.21,11.21,0,0,0-.53-2.09c-.73-2-2.78-2.47-5-1.17l-3.78,2.18a11.77,11.77,0,0,0-5,7,22.24,22.24,0,0,0-.51,2.69L375,702.69a22.66,22.66,0,0,0-4.84,9l51.28-54.84,49.84-3.54A4.87,4.87,0,0,0,466.37,649.92Z"/></g><path class="cls-55" d="M405.84,663.66,371,702a25.19,25.19,0,0,0-5.9,13.22l-9.86,50.9a56.61,56.61,0,0,0-.5,18.41l13.13,66.36c1.83,6.11,18,.42,17.65-5.64l-5.06-49.17a90.33,90.33,0,0,1,4.38-38.5l10.4-30.44,24.24-44.6-7-4.44-5.11-9.91Z"/><path class="cls-55" d="M463,648.43l-32.61,2.11c4.06,8.05,6.44,16,4.44,23.71l6.37.08,11.11,40.4,10.17,83c.86,5.23,16.8.79,16.8-6.63l-5.3-67.81a69.1,69.1,0,0,1-.75-9.74c-.07-14.58-.41-57.25-1.94-61.68-.39-1.15-1.65-2.16-3.64-2.86Z"/><path class="cls-48" d="M434.4,784.51,431.16,695a1.78,1.78,0,0,1-.92.27c-.07,0,3.31,90.35,3.31,90.35Z"/><path class="cls-57" d="M458.46,712.82c-4.44,13.5-16,29.52-26,41-12,13.8-36.17,31.44-46.54,26.42-.31,18.8-1.34,39-1.34,48.85,0,2.07,1.77,3.49,4.69,4.27C405.64,835.8,435,820.89,435,820.89l.39-.2,4.69-2.6c14.36-8,16.59-15.14,16.37-21.71C455.67,771.68,454.34,749,458.46,712.82Z"/><path class="cls-57" d="M443.43,662.25c-4.43-9-15.19-13.13-17-13.13a3.28,3.28,0,0,1,1,1.22l.63,2.34c2.85,1.85,4.8,8.23,6,13.66.74,10.27-3.41,29.08-3.41,29.08l6.14-15.88Z"/><path class="cls-57" d="M430.09,695.09c-5-3.42-9.16-11-12.44-16.25-2.06-4.42-5.12-10.92-5.9-13.17a15.6,15.6,0,0,1,.1-9.67c-2.42,1.07-6.34,6.74-6.76,10.29s1.82,15.51,1.82,15.51L417,687.6Z"/><polygon class="cls-48" points="443.37 662.12 430.51 695.12 406.86 681.53 406.94 682.47 430.52 696.01 431 695.91 443.66 663.08 443.37 662.12"/><path class="cls-50" d="M459.86,701.63c-2.26,16.73-3.41,30.73-3.91,43.17l6.48,52.91c.33,2,2.85,2.57,5.85,2.12C468.28,799.83,460.33,759.23,459.86,701.63Z"/><path class="cls-58" d="M432.37,753.93l2.51,67,.82-.45-2.45-67.63-.79.94Z"/><path class="cls-59" d="M411.15,780.13c-.53,8.59-3.73,17.19-10.85,25.8l-4-1.7a45.85,45.85,0,0,0,10.86-25.8Z"/><path class="cls-59" d="M455.62,764.74a52.21,52.21,0,0,1-4.93-10.21l-1.75,4a34,34,0,0,0,6.76,12.49C456.49,771.06,456.37,765.8,455.62,764.74Z"/><path class="cls-50" d="M390,742.31,385.65,755c1.14,25.8-1.07,59.35-1.07,74.06,0,1.83,1.41,3.14,3.75,3.95,3.59-21.64,5.65-41.1,4.64-62.84C392.56,761.27,391.27,751.84,390,742.31Z"/></g><g id="_3" data-name="3"><path class="cls-60" d="M475.73,680.73,472,676.68l-8.31,1.6-10.45,6.65-.52,9.32,2.08,7.49,7.2,3.41c3.67,2.82,7.16,5.59,10.5,7.78l4.77-16.6,2.55-3.67Z"/><g class="cls-2"><path class="cls-46" d="M507.24,676.33a.77.77,0,0,0-1.05-.29L416,728.09a.77.77,0,0,0,.39,1.44.75.75,0,0,0,.38-.1l90.15-52A.77.77,0,0,0,507.24,676.33Z"/><path class="cls-47" d="M505.94,673.52a4.58,4.58,0,0,0-2.47-.6l-35.71,2.57.46,3.41L508,674.73Z"/><path class="cls-47" d="M466.13,672.1a3.58,3.58,0,0,0-3.56.36l-3.51,2a10.94,10.94,0,0,0-4.67,6.5,20.15,20.15,0,0,0-.48,2.5L418.3,722.1a20.9,20.9,0,0,0-4.51,8.4l2.09,1.22,4.35-6,48-52.42Z"/><path class="cls-46" d="M505.56,674.14l-35.71,2.57a10.83,10.83,0,0,0-.49-1.94c-.68-1.9-2.59-2.3-4.69-1.09l-3.52,2a10.94,10.94,0,0,0-4.67,6.5,21.78,21.78,0,0,0-.48,2.5l-35.61,38.6a21.06,21.06,0,0,0-4.51,8.41l47.79-51.11,46.44-3.3A4.54,4.54,0,0,0,505.56,674.14Z"/></g><path class="cls-61" d="M411.15,735a17.32,17.32,0,0,1,4.37-10.35l30.09-33.67,3.1-2.1,5.55,9.7c.26-.24.52-.49.79-.72,1.23,3.47,7.72,9.49,17.44,15.11,6.88-20.24,3.5-25.4,3.62-29.16l-4.12-9,30.39-2a10.86,10.86,0,0,1,4.83.72,4.69,4.69,0,0,1,2.9,2.47c1.72,5,1.82,62,1.82,62l9.71,65.39c0,2.38-4,5.18-8.47,7.16-5.35,2.38-11.27,3.57-11.27,1.38l-6-49.23c-.72,18,0,32.61.49,48,.19,6.12-1.88,12.77-15.26,20.23l-4.37-1.72-.36.19L473.57,835c-16.4,11.66-44.21,14-44.21,6.08,0-15.64,2.68-54.13.34-78.67-.14-1.41-.22-2.89-.27-4.4l-5.86,33.89,6.61,64.2c0,2.16-3.86,5-8.2,6.94-4.81,2.2-10.2,3.39-11.54,1.6l-10.12-73.74Z"/><path class="cls-8" d="M454.67,688.82a14.6,14.6,0,0,1,.09-9c-2.25,1-9.19,9.27-9.58,12.57s5.07,23.21,5.2,23.24S462,705.15,462,705.15C461.92,704.61,455.79,692,454.67,688.82Z"/><path class="cls-62" d="M477.26,696.33l10.41-.92c-5.44-10.85-9.59-17.16-13.63-20.37a11.37,11.37,0,0,0-5.7-1.64,3,3,0,0,1,.92,1.14l.59,2.17C474.25,679.57,476.92,693.56,477.26,696.33Z"/><path class="cls-62" d="M479.3,696.15c1.05-3.8-1.65-9.2-4.28-9.79,2,9.29-2.53,26.57-2.53,26.57Z"/><path class="cls-8" d="M460.17,701.09l-2,5.12.29,1.6,13.56,4.8C467.32,709.43,463.22,706,460.17,701.09Z"/></g><g id="_3-2" data-name="3"><path class="cls-63" d="M514.59,702.88l-3.74-4.06-8.31,1.6-10.46,6.65-.52,9.32,2.09,7.5,7.2,3.41c3.67,2.81,7.16,5.59,10.5,7.77l4.77-16.6,2.55-3.66Z"/><g class="cls-2"><path class="cls-46" d="M546.1,698.47a.78.78,0,0,0-1.06-.28l-90.14,52a.77.77,0,0,0-.28,1.06.76.76,0,0,0,.67.38.75.75,0,0,0,.38-.1l90.15-52A.79.79,0,0,0,546.1,698.47Z"/><path class="cls-47" d="M544.8,695.66a4.59,4.59,0,0,0-2.47-.59l-35.72,2.57.47,3.41,39.81-4.17Z"/><path class="cls-47" d="M505,694.25a3.54,3.54,0,0,0-3.55.36l-3.51,2a11,11,0,0,0-4.68,6.5,18.3,18.3,0,0,0-.47,2.5l-35.62,38.6a20.94,20.94,0,0,0-4.5,8.4l2.09,1.22,4.35-6,48-52.42Z"/><path class="cls-46" d="M544.42,696.29l-35.71,2.57a10.41,10.41,0,0,0-.49-1.94c-.68-1.9-2.6-2.31-4.7-1.09l-3.51,2a11,11,0,0,0-4.67,6.5,22.7,22.7,0,0,0-.48,2.5l-35.61,38.61a21.09,21.09,0,0,0-4.51,8.4l47.78-51.1,46.45-3.3A4.55,4.55,0,0,0,544.42,696.29Z"/></g><path class="cls-64" d="M450,757.11a17.29,17.29,0,0,1,4.37-10.36l30.08-33.66,3.11-2.1,5.55,9.69c.26-.23.52-.48.79-.71,1.23,3.47,7.72,9.49,17.44,15.1,6.88-20.24,3.5-25.39,3.62-29.15l-4.12-9,30.39-2a10.88,10.88,0,0,1,4.83.71,4.71,4.71,0,0,1,2.9,2.48c1.71,5,1.82,62,1.82,62l9.71,65.39c0,2.38-4,5.18-8.47,7.15-5.36,2.38-11.27,3.57-11.27,1.39l-6-49.23c-.72,18,0,32.6.48,48,.2,6.12-1.88,12.76-15.25,20.23l-4.37-1.72-.36.19-2.79,5.71c-16.41,11.66-44.22,14-44.22,6.08,0-15.64,2.69-54.13.35-78.68-.14-1.4-.22-2.88-.27-4.39l-5.86,33.89,6.61,64.2c0,2.16-3.87,5-8.2,6.94-4.81,2.2-10.2,3.39-11.54,1.6l-10.13-73.74Z"/><path class="cls-65" d="M493.53,711a14.6,14.6,0,0,1,.09-9c-2.25,1-9.19,9.27-9.58,12.57s5.07,23.21,5.2,23.24,11.61-10.47,11.61-10.47C500.78,726.75,494.65,714.18,493.53,711Z"/><path class="cls-64" d="M516.12,718.47l10.4-.92c-5.43-10.85-9.58-17.15-13.63-20.36a11.11,11.11,0,0,0-5.69-1.64,3,3,0,0,1,.92,1.13l.59,2.18C513.11,701.72,515.78,715.71,516.12,718.47Z"/><polygon class="cls-66" points="515.58 851.28 511.09 727.76 510.5 726 515.22 851.47 515.58 851.28"/><path class="cls-64" d="M518.15,718.29c1.06-3.79-1.64-9.19-4.27-9.79,2,9.3-2.53,26.57-2.53,26.57Z"/><path class="cls-65" d="M499,723.24l-2,5.12.3,1.59,13.56,4.81C506.18,731.58,502.08,728.18,499,723.24Z"/><path class="cls-66" d="M550,817.93c-3.21,1.43-6.94,2.56-9.26,2.56a3.31,3.31,0,0,1-1.7-.36l-.07-.56a.75.75,0,0,0,.23.24c1.32.86,5.9-.09,10.66-2.21,4-1.75,8.1-4.37,8.47-6.63l.13.87C557.15,814.57,551.82,817.13,550,817.93Zm-90.89,52.56c3.46-1.58,7.4-4.06,8.45-6.35l-.1-1c-.1,2.23-4.31,5.14-8.5,7.06-4.72,2.15-10.11,3.42-11.71,1.89l.08.57a4.42,4.42,0,0,0,2.27.5C452.2,873.11,455.91,872,459.13,870.49Z"/></g><path class="cls-67" d="M338.39,603a1,1,0,0,1-1-1v-9a1,1,0,1,1,2.06,0v9A1,1,0,0,1,338.39,603Z"/><path class="cls-67" d="M379.15,626.52a1,1,0,0,1-1-1v-9a1,1,0,1,1,2.06,0v9A1,1,0,0,1,379.15,626.52Z"/><path class="cls-67" d="M419.92,650.05a1,1,0,0,1-1-1v-9a1,1,0,0,1,2.07,0v9A1,1,0,0,1,419.92,650.05Z"/><path class="cls-67" d="M500.68,696.68a1,1,0,0,1-1-1v-9a1,1,0,0,1,2.06,0v9A1,1,0,0,1,500.68,696.68Z"/><path class="cls-67" d="M462.13,674.42a1,1,0,0,1-1-1v-9a1,1,0,0,1,2.06,0v9A1,1,0,0,1,462.13,674.42Z"/><polygon class="cls-68" points="559.79 723.26 541.74 727.14 525.35 741.79 516.9 760.92 554.02 765.62 560.88 742.77 559.79 723.26"/><path class="cls-67" d="M512.36,763.71a3.7,3.7,0,0,1-3-1.59,4,4,0,0,1,.33-5.35l31.4-29a1,1,0,0,1,.49-.25l34.73-7.42a3.21,3.21,0,0,1,2.27,5.92l-64.49,37.23A3.53,3.53,0,0,1,512.36,763.71Zm30-34.26-31.2,28.83a2,2,0,0,0-.07,2.61,1.52,1.52,0,0,0,2,.54l64.49-37.23a1.11,1.11,0,0,0,.5-1.41,1.09,1.09,0,0,0-1.31-.71Z"/><path class="cls-67" d="M541.83,729.53a1,1,0,0,1-1-1V710.41a1,1,0,0,1,2.07,0V728.5A1,1,0,0,1,541.83,729.53Z"/><path class="cls-8" d="M493.86,776.65a19,19,0,0,1,4.48-9.7l27-25.16c-.18,7.57,11.37,16,22.72,10.43s13.42-21,9-28.41l27.17-5.54c5.07-1,6.11,2.45,6.27,5.76l2.61,38.42c0,6.67-8.84,20.33-8.84,20.33l.56,72c0,23.71-79.43,59.16-79.43,36.59,0-11.6-.24-54.23-.32-67.92-5.38-.23-17.15-2.65-17.15-8.69Z"/><path class="cls-68" d="M514.57,823.26a1.08,1.08,0,0,0,.91-1l1.42-30.14v31.78s-5.9,4.62-11.78,3.37l0-3.8A44.87,44.87,0,0,0,514.57,823.26Z"/><polygon class="cls-68" points="586.24 779.58 584.29 782.78 584.29 754.3 586.24 779.58"/><polygon class="cls-69" points="585.11 737.87 567.05 741.76 550.66 756.41 542.21 775.53 579.33 780.24 586.19 757.39 585.11 737.87"/><path class="cls-67" d="M537.67,778.33a3.66,3.66,0,0,1-2.95-1.6,4,4,0,0,1,.32-5.34l31.41-29a1.06,1.06,0,0,1,.48-.25l34.73-7.42a3.21,3.21,0,0,1,2.28,5.92l-64.49,37.24A3.57,3.57,0,0,1,537.67,778.33Zm30-34.27L536.45,772.9a1.94,1.94,0,0,0-.08,2.6,1.55,1.55,0,0,0,2,.55l64.48-37.24a1.14,1.14,0,0,0-.81-2.11Z"/><path class="cls-67" d="M567.15,744.14a1,1,0,0,1-1-1V725a1,1,0,0,1,2.06,0v18.09A1,1,0,0,1,567.15,744.14Z"/><path class="cls-70" d="M519.18,791.26a18.84,18.84,0,0,1,4.48-9.7l27-25.15c-.18,7.56,11.37,16,22.73,10.43s13.41-21,9-28.41l27.17-5.55c5.07-1,6.11,2.45,6.27,5.76l2.61,38.43c0,6.66-8.84,20.32-8.84,20.32l.56,72c0,23.72-79.43,59.16-79.43,36.6,0-11.61-.24-54.23-.32-67.93-5.38-.22-17.15-2.64-17.15-8.68Z"/><path class="cls-69" d="M539.88,837.88a1.09,1.09,0,0,0,.91-1l1.42-30.15v31.78s-5.9,4.62-11.77,3.37l0-3.8A44.51,44.51,0,0,0,539.88,837.88Z"/><polygon class="cls-69" points="611.55 794.2 609.6 797.39 609.6 768.91 611.55 794.2"/><path class="cls-71" d="M325,582.2a.84.84,0,0,0-.85.08,2.63,2.63,0,0,0-1.18,2.05.82.82,0,0,0,.34.76L593.81,741.25v-3.87Z"/><path class="cls-72" d="M546.22,1101.16a3.74,3.74,0,0,0,3.74-3.73v-12.21c0-12.49,10.68-29.21,23.32-36.5l44.67-25.8c6.13-3.53,11.71-4.37,15.31-2.29s4.28,6.4,4.28,9.7v12.21a3.74,3.74,0,0,0,7.48,0v-12.21c0-7.45-2.85-13.2-8-16.18-6-3.43-14.28-2.62-22.79,2.3l-44.67,25.79c-15.18,8.76-27.06,27.64-27.06,43v12.21A3.73,3.73,0,0,0,546.22,1101.16Z"/><g id="Axonometric_Cylinder-2" data-name="Axonometric Cylinder"><path id="Cylinder_face-2" data-name="Cylinder face" class="cls-8" d="M596.2,733.16c1.37-.79,1.37-2.07,0-2.87a5.51,5.51,0,0,0-5,0c-1.37.8-1.37,2.08,0,2.87A5.51,5.51,0,0,0,596.2,733.16Z"/><path id="Cylinder_body-2" data-name="Cylinder body" class="cls-73" d="M590.21,731.71V1031a1.73,1.73,0,0,0,1,1.45,5.51,5.51,0,0,0,5,0,1.75,1.75,0,0,0,1-1.42V731.75a1.75,1.75,0,0,1-1,1.41,5.51,5.51,0,0,1-5,0A1.73,1.73,0,0,1,590.21,731.71Z"/></g></g><g id="_15" data-name="15"><path class="cls-74" d="M904.39,90l-8.32,4.16c3.4,3.07,8.06,6.43,16.58,10.93L915,109.4c-9.67,6.64-28.76,0-32.11-2.57-4.9-3.82-6.23-11-11.26-14.68-2.89-2.09-6.59-2.68-9.74-4.35s-5.87-5.38-4.42-8.63c2.06-4.59,13.33-7.38,25.25,2.14a93.69,93.69,0,0,1,10.34,10l8.86-5.11c-1.72-3-3.36-6-6.09-8-2.89-2.09-6.59-2.68-9.74-4.35s-5.87-5.38-4.42-8.64c2.06-4.58,13.33-7.38,25.25,2.15,11.17,8.93,9.91,13.22,29.91,23.78l2.37,4.3c-9.67,6.65-28.76,0-32.11-2.57A14.41,14.41,0,0,1,904.39,90Z"/><g id="Axonometric_Cube" data-name="Axonometric Cube"><polygon id="Cube_face_-_left" data-name="Cube face - left" class="cls-75" points="891.78 71.38 890.72 70.77 889.03 42.4 891.78 43.15 891.78 71.38"/><polygon id="Cube_face_-_right" data-name="Cube face - right" class="cls-76" points="892.83 70.77 891.78 71.38 891.78 43.15 894.52 42.4 892.83 70.77"/></g><path class="cls-77" d="M888.71,29.6c1.65-1.35,3.48-2.52,4.95-3.62,1.21-.9,2.54-1.84,4-1.82s3,1.13,4.16,2.23a72.42,72.42,0,0,1,11.3,13.8,115.36,115.36,0,0,1,9.75,18.41c2.52,6.09,7.24,12,11.26,17.25a57,57,0,0,1,5.34,7.59c1.5,2.79,3,7.13,1.7,10.27-1.14,2.7-4.66,3.3-7.59,3.26a52.07,52.07,0,0,1-18-3.54c-5.26-2.06-10.21-4.14-12.43-9.71-1.51-3.81-1.71-8-2-12.07s-.82-8.28-2.84-11.84c-1.84-3.25-4.8-5.69-7.45-8.34-2.9-2.89-5.57-6.24-6.51-10.23a11.51,11.51,0,0,1,.46-6.89A12.58,12.58,0,0,1,888.71,29.6Z"/><path class="cls-75" d="M921.72,57.58c-5.71-12.66-10-18.93-17.6-28.2a14,14,0,0,0-2.85-2.69c-4.3-2.94-6.93-.72-6.71,4.41a25.93,25.93,0,0,0,1.63,8,255.64,255.64,0,0,1,11.33,33.92l.39,1.57a10.31,10.31,0,0,0,8,7.78c5.82,1.07,12.43-1.62,15.19-5.47C934,72.57,927.51,71.76,921.72,57.58Z"/><path class="cls-76" d="M918.67,65.56c-6.56-13.8-9-15.35-16.41-24.3-2.53-3.06-4.77-3.73-6.37-2.92.13.36.26.72.4,1.06A239.33,239.33,0,0,1,907.9,74.6a10.36,10.36,0,0,0,8.28,7.86,16.8,16.8,0,0,0,14.12-4.53C925.12,74.76,921.29,71.09,918.67,65.56Z"/><path class="cls-78" d="M919.45,82.47c-10.9.43-11.44-8.6-12.81-13.78-5.57-20.76-10.73-28-11.74-35.4-.8-6.29,1-9.87,6.37-6.6-5.41-3.46-7.46.27-6.67,6.64,1,7.66,6.82,16.45,12.56,39.27a28.24,28.24,0,0,0,1.07,3.69c3.9,9.34,17.29,7.81,22.89.66A16.14,16.14,0,0,1,919.45,82.47Z"/><g id="Axonometric_Cube-2" data-name="Axonometric Cube"><polygon id="Cube_face_-_left-2" data-name="Cube face - left" class="cls-75" points="867.54 85.36 866.49 84.75 864.8 56.39 867.54 57.14 867.54 85.36"/><polygon id="Cube_face_-_right-2" data-name="Cube face - right" class="cls-76" points="868.6 84.75 867.54 85.36 867.54 57.14 870.29 56.39 868.6 84.75"/></g><path class="cls-77" d="M864.48,43.59c1.65-1.35,3.48-2.52,4.95-3.62a7,7,0,0,1,4-1.82c1.61,0,3,1.13,4.15,2.23a72.1,72.1,0,0,1,11.31,13.8,115.36,115.36,0,0,1,9.75,18.41c2.52,6.09,7.24,12,11.25,17.25a56.15,56.15,0,0,1,5.35,7.59c1.5,2.79,3,7.13,1.7,10.27-1.14,2.7-4.67,3.3-7.6,3.26a51.83,51.83,0,0,1-18-3.54c-5.26-2.06-10.21-4.14-12.43-9.71-1.51-3.81-1.71-8-2-12.07s-.82-8.28-2.84-11.84c-1.85-3.25-4.81-5.69-7.46-8.34-2.9-2.89-5.56-6.24-6.5-10.23a11.51,11.51,0,0,1,.46-6.89A12.58,12.58,0,0,1,864.48,43.59Z"/><path class="cls-75" d="M897.49,71.57c-5.71-12.66-10-18.93-17.6-28.2A13.78,13.78,0,0,0,877,40.68c-4.29-2.94-6.92-.72-6.71,4.41a26.24,26.24,0,0,0,1.64,8,257.1,257.1,0,0,1,11.33,33.92l.38,1.57a10.32,10.32,0,0,0,8,7.78c5.82,1.07,12.42-1.62,15.18-5.47C909.74,86.56,903.28,85.75,897.49,71.57Z"/><path class="cls-76" d="M894.44,79.55c-6.56-13.8-9-15.35-16.42-24.3-2.52-3.06-4.76-3.73-6.36-2.92.13.36.26.72.4,1.06a239.29,239.29,0,0,1,11.6,35.2A10.38,10.38,0,0,0,892,96.45a16.77,16.77,0,0,0,14.11-4.53C900.89,88.75,897.06,85.08,894.44,79.55Z"/><path class="cls-78" d="M895.22,96.46c-10.9.43-11.45-8.6-12.81-13.78-5.57-20.76-10.73-28-11.74-35.4-.8-6.29,1-9.87,6.36-6.6-5.41-3.46-7.45.27-6.66,6.64,1,7.66,6.82,16.45,12.56,39.27A28.24,28.24,0,0,0,884,90.28c3.9,9.34,17.29,7.81,22.88.66A16.12,16.12,0,0,1,895.22,96.46Z"/></g><g id="_15-2" data-name="15"><path class="cls-74" d="M904.39,246.21l-8.32,4.17c3.4,3.07,8.06,6.43,16.58,10.93l2.37,4.3c-9.67,6.64-28.76,0-32.11-2.57-4.9-3.81-6.23-11-11.26-14.68-2.89-2.09-6.59-2.68-9.74-4.35s-5.87-5.38-4.42-8.63c2.06-4.59,13.33-7.38,25.25,2.15a92.78,92.78,0,0,1,10.34,10l8.86-5.12c-1.72-3-3.36-6-6.09-8-2.89-2.09-6.59-2.68-9.74-4.35s-5.87-5.38-4.42-8.63c2.06-4.59,13.33-7.38,25.25,2.15,11.17,8.92,9.91,13.21,29.91,23.78l2.37,4.3c-9.67,6.64-28.76,0-32.11-2.57A14.74,14.74,0,0,1,904.39,246.21Z"/><g id="Axonometric_Cube-3" data-name="Axonometric Cube"><polygon id="Cube_face_-_left-3" data-name="Cube face - left" class="cls-75" points="891.78 227.59 890.72 226.98 889.03 198.61 891.78 199.36 891.78 227.59"/><polygon id="Cube_face_-_right-3" data-name="Cube face - right" class="cls-76" points="892.83 226.98 891.78 227.59 891.78 199.36 894.52 198.61 892.83 226.98"/></g><path class="cls-36" d="M888.71,185.81c1.65-1.34,3.48-2.52,4.95-3.62,1.21-.89,2.54-1.83,4-1.81s3,1.13,4.16,2.22a72.8,72.8,0,0,1,11.3,13.81,114.51,114.51,0,0,1,9.75,18.41c2.52,6.08,7.24,12,11.26,17.24a57.64,57.64,0,0,1,5.34,7.59c1.5,2.8,3,7.14,1.7,10.28-1.14,2.7-4.66,3.3-7.59,3.25a51.61,51.61,0,0,1-18-3.54c-5.26-2.06-10.21-4.13-12.43-9.71-1.51-3.8-1.71-8-2-12.06s-.82-8.28-2.84-11.84c-1.84-3.26-4.8-5.7-7.45-8.34-2.9-2.89-5.57-6.25-6.51-10.24a11.52,11.52,0,0,1,.46-6.89A12.66,12.66,0,0,1,888.71,185.81Z"/><path class="cls-75" d="M921.72,213.79c-5.71-12.66-10-18.93-17.6-28.2a14,14,0,0,0-2.85-2.69c-4.3-2.94-6.93-.72-6.71,4.41a26,26,0,0,0,1.63,8.06,256,256,0,0,1,11.33,33.91l.39,1.58a10.31,10.31,0,0,0,8,7.77c5.82,1.07,12.43-1.62,15.19-5.46C934,228.78,927.51,228,921.72,213.79Z"/><path class="cls-76" d="M918.67,221.78c-6.56-13.8-9-15.35-16.41-24.31-2.53-3.05-4.77-3.72-6.37-2.92.13.37.26.72.4,1.06a239.33,239.33,0,0,1,11.61,35.2,10.36,10.36,0,0,0,8.28,7.86,16.77,16.77,0,0,0,14.12-4.53C925.12,231,921.29,227.3,918.67,221.78Z"/><path class="cls-78" d="M919.45,238.69c-10.9.43-11.44-8.61-12.81-13.78-5.57-20.76-10.73-28-11.74-35.41-.8-6.29,1-9.87,6.37-6.6-5.41-3.46-7.46.27-6.67,6.64,1,7.67,6.82,16.45,12.56,39.27a27.8,27.8,0,0,0,1.07,3.69c3.9,9.35,17.29,7.81,22.89.67A16.14,16.14,0,0,1,919.45,238.69Z"/><g id="Axonometric_Cube-4" data-name="Axonometric Cube"><polygon id="Cube_face_-_left-4" data-name="Cube face - left" class="cls-75" points="867.54 241.58 866.49 240.97 864.8 212.6 867.54 213.35 867.54 241.58"/><polygon id="Cube_face_-_right-4" data-name="Cube face - right" class="cls-76" points="868.6 240.97 867.54 241.58 867.54 213.35 870.29 212.6 868.6 240.97"/></g><path class="cls-36" d="M864.48,199.8c1.65-1.34,3.48-2.52,4.95-3.62,1.21-.89,2.53-1.83,4-1.81s3,1.13,4.15,2.22a72.47,72.47,0,0,1,11.31,13.81,114.51,114.51,0,0,1,9.75,18.41c2.52,6.08,7.24,12,11.25,17.24a56.79,56.79,0,0,1,5.35,7.59c1.5,2.8,3,7.14,1.7,10.28-1.14,2.7-4.67,3.3-7.6,3.25a51.6,51.6,0,0,1-18-3.54c-5.26-2.06-10.21-4.13-12.43-9.71-1.51-3.8-1.71-8-2-12.06s-.82-8.28-2.84-11.84c-1.85-3.26-4.81-5.7-7.46-8.34-2.9-2.89-5.56-6.25-6.5-10.24a11.52,11.52,0,0,1,.46-6.89A12.66,12.66,0,0,1,864.48,199.8Z"/><path class="cls-75" d="M897.49,227.78c-5.71-12.66-10-18.93-17.6-28.2a13.78,13.78,0,0,0-2.86-2.69c-4.29-2.94-6.92-.72-6.71,4.41a26.3,26.3,0,0,0,1.64,8.06,257.45,257.45,0,0,1,11.33,33.91l.38,1.58a10.33,10.33,0,0,0,8,7.77c5.82,1.07,12.42-1.62,15.18-5.46C909.74,242.77,903.28,242,897.49,227.78Z"/><path class="cls-76" d="M894.44,235.77c-6.56-13.8-9-15.35-16.42-24.31-2.52-3.05-4.76-3.72-6.36-2.92.13.37.26.72.4,1.06a239.29,239.29,0,0,1,11.6,35.2,10.38,10.38,0,0,0,8.29,7.86,16.74,16.74,0,0,0,14.11-4.53C900.89,245,897.06,241.29,894.44,235.77Z"/><path class="cls-78" d="M895.22,252.68c-10.9.43-11.45-8.61-12.81-13.78-5.57-20.77-10.73-28-11.74-35.41-.8-6.29,1-9.87,6.36-6.6-5.41-3.46-7.45.27-6.66,6.64,1,7.67,6.82,16.45,12.56,39.27a27.8,27.8,0,0,0,1.07,3.69c3.9,9.35,17.29,7.81,22.88.67A16.12,16.12,0,0,1,895.22,252.68Z"/></g><g id="_15-3" data-name="15"><path class="cls-74" d="M904.39,394.48l-8.32,4.17c3.4,3.06,8.06,6.42,16.58,10.92l2.37,4.31c-9.67,6.64-28.76,0-32.11-2.57-4.9-3.82-6.23-11-11.26-14.68-2.89-2.09-6.59-2.68-9.74-4.35s-5.87-5.38-4.42-8.63c2.06-4.59,13.33-7.38,25.25,2.14a94.61,94.61,0,0,1,10.34,10l8.86-5.11c-1.72-3-3.36-6-6.09-8-2.89-2.09-6.59-2.68-9.74-4.35s-5.87-5.38-4.42-8.63c2.06-4.59,13.33-7.39,25.25,2.14,11.17,8.93,9.91,13.22,29.91,23.78l2.37,4.31c-9.67,6.64-28.76,0-32.11-2.57A14.74,14.74,0,0,1,904.39,394.48Z"/><g id="Axonometric_Cube-5" data-name="Axonometric Cube"><polygon id="Cube_face_-_left-5" data-name="Cube face - left" class="cls-75" points="891.78 375.86 890.72 375.25 889.03 346.88 891.78 347.63 891.78 375.86"/><polygon id="Cube_face_-_right-5" data-name="Cube face - right" class="cls-76" points="892.83 375.25 891.78 375.86 891.78 347.63 894.52 346.88 892.83 375.25"/></g><path class="cls-79" d="M888.71,334.08c1.65-1.35,3.48-2.52,4.95-3.62a7.07,7.07,0,0,1,4-1.82c1.61,0,3,1.13,4.16,2.23a72.49,72.49,0,0,1,11.3,13.81,114.84,114.84,0,0,1,9.75,18.4c2.52,6.09,7.24,12,11.26,17.25a57,57,0,0,1,5.34,7.59c1.5,2.79,3,7.13,1.7,10.27-1.14,2.71-4.66,3.3-7.59,3.26a51.84,51.84,0,0,1-18-3.54c-5.26-2.06-10.21-4.14-12.43-9.71-1.51-3.81-1.71-8-2-12.06s-.82-8.29-2.84-11.85c-1.84-3.25-4.8-5.69-7.45-8.33-2.9-2.9-5.57-6.25-6.51-10.24a11.51,11.51,0,0,1,.46-6.89A12.66,12.66,0,0,1,888.71,334.08Z"/><path class="cls-75" d="M921.72,362.06c-5.71-12.66-10-18.93-17.6-28.2a14,14,0,0,0-2.85-2.69c-4.3-2.94-6.93-.72-6.71,4.41a25.93,25.93,0,0,0,1.63,8.05,256.12,256.12,0,0,1,11.33,33.92l.39,1.57a10.31,10.31,0,0,0,8,7.78c5.82,1.07,12.43-1.62,15.19-5.47C934,377.05,927.51,376.24,921.72,362.06Z"/><path class="cls-76" d="M918.67,370c-6.56-13.79-9-15.34-16.41-24.3-2.53-3.06-4.77-3.72-6.37-2.92.13.36.26.72.4,1.06a239.33,239.33,0,0,1,11.61,35.2,10.36,10.36,0,0,0,8.28,7.86,16.8,16.8,0,0,0,14.12-4.53C925.12,379.24,921.29,375.57,918.67,370Z"/><path class="cls-78" d="M919.45,387c-10.9.43-11.44-8.6-12.81-13.77-5.57-20.77-10.73-28-11.74-35.41-.8-6.29,1-9.87,6.37-6.6-5.41-3.46-7.46.27-6.67,6.64,1,7.66,6.82,16.45,12.56,39.27a28.24,28.24,0,0,0,1.07,3.69c3.9,9.34,17.29,7.81,22.89.66A16.06,16.06,0,0,1,919.45,387Z"/><g id="Axonometric_Cube-6" data-name="Axonometric Cube"><polygon id="Cube_face_-_left-6" data-name="Cube face - left" class="cls-75" points="867.54 389.85 866.49 389.24 864.8 360.87 867.54 361.62 867.54 389.85"/><polygon id="Cube_face_-_right-6" data-name="Cube face - right" class="cls-76" points="868.6 389.24 867.54 389.85 867.54 361.62 870.29 360.87 868.6 389.24"/></g><path class="cls-79" d="M864.48,348.07c1.65-1.35,3.48-2.52,4.95-3.62a7,7,0,0,1,4-1.82c1.61,0,3,1.13,4.15,2.23a72.41,72.41,0,0,1,11.31,13.8,115.36,115.36,0,0,1,9.75,18.41c2.52,6.09,7.24,12,11.25,17.25a56.15,56.15,0,0,1,5.35,7.59c1.5,2.79,3,7.13,1.7,10.27-1.14,2.71-4.67,3.3-7.6,3.26a51.83,51.83,0,0,1-18-3.54c-5.26-2.06-10.21-4.13-12.43-9.71-1.51-3.81-1.71-8-2-12.06s-.82-8.29-2.84-11.85c-1.85-3.25-4.81-5.69-7.46-8.33-2.9-2.9-5.56-6.25-6.5-10.24a11.51,11.51,0,0,1,.46-6.89A12.66,12.66,0,0,1,864.48,348.07Z"/><path class="cls-75" d="M897.49,376.05c-5.71-12.66-10-18.93-17.6-28.2a13.78,13.78,0,0,0-2.86-2.69c-4.29-2.94-6.92-.72-6.71,4.41a26.24,26.24,0,0,0,1.64,8.05,257.59,257.59,0,0,1,11.33,33.92l.38,1.57a10.32,10.32,0,0,0,8,7.78c5.82,1.07,12.42-1.62,15.18-5.47C909.74,391,903.28,390.23,897.49,376.05Z"/><path class="cls-76" d="M894.44,384c-6.56-13.79-9-15.34-16.42-24.3-2.52-3.06-4.76-3.72-6.36-2.92.13.36.26.72.4,1.06a239.29,239.29,0,0,1,11.6,35.2,10.38,10.38,0,0,0,8.29,7.86,16.77,16.77,0,0,0,14.11-4.53C900.89,393.23,897.06,389.56,894.44,384Z"/><path class="cls-78" d="M895.22,400.94c-10.9.43-11.45-8.6-12.81-13.78-5.57-20.76-10.73-28-11.74-35.4-.8-6.29,1-9.87,6.36-6.6-5.41-3.46-7.45.27-6.66,6.64,1,7.66,6.82,16.45,12.56,39.27a28.24,28.24,0,0,0,1.07,3.69c3.9,9.34,17.29,7.81,22.88.66A16,16,0,0,1,895.22,400.94Z"/></g><path class="cls-33" d="M591.68,511.3a2.85,2.85,0,0,1,.49-.29c.93-.42,2.75.33,3.93,1.1,9.19,5.95,10.89,11.88,10.89,31,0,16.1-1.1,33.27-1.45,38.23a2.66,2.66,0,0,1-1.34,2.14l-54.49,31.85-3.41.8-2.62-.24-12.8-68.74Z"/><path class="cls-36" d="M561.34,604.84c5.82-2.81,26.65-16,30.86-19.76,7-6.24,7.58-16.3,7.89-18.15.59-3.43,1.28-6.85,1.85-10.28.64-3.81.32-7.7.72-11.54.75-7.14,1.82-15.43-.92-22.28-2.24-5.61-6.42-8.13-11.23-10.84l1.17-.69a2.85,2.85,0,0,1,.49-.29c.93-.42,2.75.33,3.93,1.1,9.19,5.95,10.89,11.88,10.89,31,0,16.1-1.1,33.27-1.45,38.23a2.68,2.68,0,0,1-1.33,2.14l-54.5,31.85-3.41.8-2.62-.24-1.13-6C548.07,609.7,554,608.37,561.34,604.84Z"/><path class="cls-36" d="M534.84,547.91c9.19,6,9.9,11.05,9.9,30.12,0,13-.26,27.1-.43,34.75-.08,3.57-.58,3.06-.58,3.06l-.71.1a2.15,2.15,0,0,1-1.87-.67l-2.57-2.76a2.14,2.14,0,0,0-1.75-.67l-2.38.2a4.56,4.56,0,0,1-4-1.83l-2.47-3.31a2.2,2.2,0,0,0-1.54-.86l-2.53-.22a2.14,2.14,0,0,1-2-2.17c.11-5.59.51-21.85,1.76-35.49C525.22,551.4,529,544.12,534.84,547.91Z"/><path class="cls-33" d="M530.88,554.45s-.42,13-.7,24.37c-.21,8.78-1.78,24.36-1.78,24.36s-1.18-5.25-.89-20.46A151.77,151.77,0,0,1,530.88,554.45Z"/><path class="cls-33" d="M538.7,558.12s1.91,6.65,1.8,21.23c-.09,11.86-2.34,30-2.34,30a219.17,219.17,0,0,1-.89-27.77C537.87,568.11,538.7,558.12,538.7,558.12Z"/><path class="cls-36" d="M537.73,543.07s2.57,1.44,6.28,3.74c5.78,3.58,6.81,7.71,7.22,15.45.19,3.56.16,9.83.29,16.11A63.33,63.33,0,0,0,553,592.15c1.63,6.34,8,3.8,17.9-.82,11.76-5.47,21.38-12.94,25.61-18,2.37-2.86,3.2-5.49,3.9-9.71.36-2.23,1-12.1,1.18-14.11,1.38-17.94.39-24.74-3.33-30.47a17,17,0,0,0-8.63-6.51l1.47-.72a12.82,12.82,0,0,1,5.61,2.94c3.8,3.24,6.79,8.88,7,13.61a135.67,135.67,0,0,1-.44,23.48c-.2,1.82,0,16.71-5.3,22.68-5.41,6.13-21.16,16.9-35.53,23-9.06,3.86-11.82-2.51-12.72-9.62-.1-.78-.5-6.32-.57-7.78-.41-7.49,1.19-17.55-.78-24.26s-11-11-12.28-11.82Z"/><path class="cls-36" d="M544.74,571.32c1,5.08.3,21.82,0,28.59s.42,14.11,1.41,15,6.42-1.28,6.42-1.28a34.9,34.9,0,0,1-6.29,3.32c-3.75,1.29-5.78-2.36-5.78-2.36s2.89,2.39,3-.86S544.57,577.68,544.74,571.32Z"/><path class="cls-36" d="M522.63,583.25s0,10.94,0,14.69-.48,6.31.45,6.95a10.94,10.94,0,0,0,2.66,1.1s-2.27.93-3.5-.36-.84-4-.72-6.26C521.72,596.57,522.25,586.29,522.63,583.25Z"/><path class="cls-3" d="M638.05,539.16a2.91,2.91,0,0,1,.5-.29c.93-.42,2.75.33,3.93,1.1,9.19,5.95,10.89,11.89,10.89,31,0,16.1-1.11,33.27-1.45,38.24a2.72,2.72,0,0,1-1.34,2.14l-54.49,31.84-3.42.8-2.62-.24L577.25,575Z"/><path class="cls-80" d="M607.71,632.71c5.83-2.82,26.66-16,30.87-19.77,7-6.23,7.57-16.3,7.89-18.15.58-3.43,1.28-6.85,1.85-10.28.64-3.81.32-7.7.72-11.53.75-7.15,1.81-15.44-.92-22.29-2.24-5.61-6.42-8.13-11.23-10.84l1.16-.69a2.91,2.91,0,0,1,.5-.29c.93-.42,2.75.33,3.93,1.1,9.19,5.95,10.89,11.89,10.89,31,0,16.1-1.11,33.27-1.45,38.24a2.72,2.72,0,0,1-1.34,2.14l-54.49,31.84-3.42.8-2.62-.24-1.12-6C594.45,637.56,600.42,636.23,607.71,632.71Z"/><path class="cls-80" d="M581.22,575.77c9.19,6,9.9,11.05,9.9,30.13,0,13-.27,27.1-.43,34.75-.08,3.57-.58,3.05-.58,3.05l-.72.1a2.12,2.12,0,0,1-1.86-.66L585,640.37a2.15,2.15,0,0,0-1.76-.67l-2.37.2a4.6,4.6,0,0,1-4.05-1.82l-2.46-3.32a2.15,2.15,0,0,0-1.54-.85l-2.53-.22a2.15,2.15,0,0,1-2-2.18c.1-5.58.51-21.84,1.76-35.48C571.59,579.26,575.37,572,581.22,575.77Z"/><path class="cls-3" d="M577.25,582.32s-.41,13-.69,24.36c-.21,8.78-1.78,24.36-1.78,24.36s-1.19-5.25-.89-20.45A151.13,151.13,0,0,1,577.25,582.32Z"/><path class="cls-3" d="M585.08,586s1.91,6.64,1.8,21.23c-.1,11.85-2.34,30-2.34,30a219,219,0,0,1-.89-27.76C584.24,596,585.08,586,585.08,586Z"/><path class="cls-80" d="M584.11,570.93s2.57,1.45,6.27,3.74c5.79,3.58,6.82,7.71,7.23,15.46.19,3.55.16,9.82.29,16.1A63.07,63.07,0,0,0,599.4,620c1.64,6.34,8,3.8,17.9-.81,11.76-5.48,21.39-12.94,25.62-18.05,2.36-2.86,3.19-5.48,3.89-9.71.37-2.22,1-12.09,1.19-14.1,1.38-18,.39-24.75-3.33-30.47a17,17,0,0,0-8.63-6.52l1.47-.72a12.72,12.72,0,0,1,5.6,3c3.81,3.23,6.8,8.88,7,13.6a136.69,136.69,0,0,1-.44,23.48c-.2,1.82,0,16.71-5.3,22.69s-21.16,16.89-35.53,23c-9.07,3.86-11.82-2.5-12.73-9.61-.1-.79-.49-6.33-.57-7.78-.4-7.5,1.2-17.56-.77-24.27s-11-11-12.29-11.82Z"/><path class="cls-80" d="M591.12,599.18c1,5.08.3,21.82,0,28.6s.42,14.1,1.41,15,6.42-1.29,6.42-1.29a34.9,34.9,0,0,1-6.29,3.32c-3.75,1.29-5.78-2.36-5.78-2.36s2.89,2.4,3-.86S591,605.54,591.12,599.18Z"/><path class="cls-80" d="M569,611.11s0,10.95,0,14.69-.49,6.32.45,7a10.75,10.75,0,0,0,2.66,1.09s-2.28.93-3.5-.35-.84-4-.72-6.26C568.09,624.43,568.63,614.15,569,611.11Z"/><path class="cls-81" d="M684.65,566.12a2.76,2.76,0,0,1,.49-.28c.94-.42,2.75.33,3.94,1.09,9.19,6,10.89,11.89,10.89,31,0,16.09-1.11,33.26-1.46,38.23a2.69,2.69,0,0,1-1.33,2.14l-54.49,31.84-3.42.81-2.62-.24-12.8-68.75Z"/><path class="cls-82" d="M654.31,659.67c5.83-2.81,26.66-16,30.86-19.76,7-6.24,7.58-16.31,7.9-18.15.58-3.43,1.28-6.85,1.85-10.29.63-3.8.32-7.7.72-11.53.75-7.15,1.81-15.43-.92-22.29-2.24-5.6-6.42-8.12-11.24-10.84l1.17-.69a2.76,2.76,0,0,1,.49-.28c.94-.42,2.75.33,3.94,1.09,9.19,6,10.89,11.89,10.89,31,0,16.09-1.11,33.26-1.46,38.23a2.69,2.69,0,0,1-1.33,2.14l-54.49,31.84-3.42.81-2.62-.24-1.12-6C641.05,664.52,647,663.2,654.31,659.67Z"/><path class="cls-82" d="M627.82,602.73c9.19,6,9.9,11,9.9,30.13,0,13-.27,27.1-.43,34.75-.08,3.57-.58,3.06-.58,3.06l-.72.1a2.16,2.16,0,0,1-1.86-.67l-2.58-2.76a2.17,2.17,0,0,0-1.75-.68l-2.37.2a4.56,4.56,0,0,1-4-1.82l-2.46-3.31a2.13,2.13,0,0,0-1.54-.86l-2.53-.22a2.14,2.14,0,0,1-2-2.17c.1-5.59.5-21.85,1.76-35.49C618.19,606.23,622,598.94,627.82,602.73Z"/><path class="cls-81" d="M623.85,609.28s-.41,13-.69,24.36c-.22,8.79-1.79,24.37-1.79,24.37s-1.18-5.26-.88-20.46A151.29,151.29,0,0,1,623.85,609.28Z"/><path class="cls-81" d="M631.68,613s1.91,6.64,1.79,21.23c-.09,11.86-2.33,30-2.33,30a219,219,0,0,1-.89-27.76C630.84,622.94,631.68,613,631.68,613Z"/><path class="cls-82" d="M630.71,597.9s2.57,1.44,6.27,3.73c5.79,3.59,6.82,7.72,7.23,15.46.19,3.56.16,9.82.28,16.1A63.9,63.9,0,0,0,646,647c1.64,6.35,8,3.8,17.9-.81,11.76-5.47,21.39-12.94,25.62-18,2.36-2.86,3.19-5.49,3.89-9.72.37-2.22,1-12.09,1.18-14.1,1.38-17.95.4-24.74-3.32-30.47a17,17,0,0,0-8.64-6.52l1.48-.71a12.81,12.81,0,0,1,5.6,2.94c3.8,3.23,6.8,8.88,7,13.61a137.61,137.61,0,0,1-.44,23.47c-.2,1.82,0,16.71-5.31,22.69s-21.15,16.89-35.52,23c-9.07,3.86-11.82-2.51-12.73-9.62-.1-.79-.49-6.33-.57-7.78-.41-7.49,1.19-17.55-.77-24.27s-11-11-12.29-11.81Z"/><path class="cls-82" d="M637.72,626.14c1,5.08.29,21.82,0,28.6s.42,14.1,1.4,15,6.43-1.29,6.43-1.29a35.37,35.37,0,0,1-6.29,3.33c-3.75,1.29-5.78-2.36-5.78-2.36s2.88,2.39,3-.86S637.55,632.5,637.72,626.14Z"/><path class="cls-82" d="M615.6,638.08s0,10.94,0,14.69-.48,6.31.46,7a10.94,10.94,0,0,0,2.66,1.1s-2.28.92-3.5-.36-.84-4-.72-6.26C614.69,651.39,615.22,641.12,615.6,638.08Z"/><path class="cls-79" d="M740.79,440c5-9.47,11.46-15.77,18.11-19.53,6.25-3.69,12.32-4.91,17.2-2l17.5,10.3-10.84,22.27a167.59,167.59,0,0,1-5,22.22l-8,4.64-13,26.79L740.07,495C734.17,481.75,729.81,460.69,740.79,440Z"/><path class="cls-83" d="M751.59,446c-8.33,15.7-7.82,31.61-4.52,44.16-.85-.51-1.71-1-2.57-1.5a24.31,24.31,0,0,0-2.57-1.65c-3.16-12.45-3.5-28.09,4.69-43.51,5-9.47,11.46-15.77,18.11-19.53,6.25-3.69,12.32-4.91,17.2-2l2.29,1.35c-4.34-1.24-9.36.12-14.51,3.15C763.06,430.22,756.62,436.52,751.59,446Z"/><path class="cls-8" d="M744.43,485.86c-.39-.29-.8-.58-1.21-.85-2.51-11.95-2.25-26.4,5.33-40.68,5-9.47,11.46-15.77,18.11-19.53,5.05-3,10.71-4.17,15-3.05l1.46.86c-4.34-1.24-10.09,0-15.24,3-6.65,3.76-13.09,10.06-18.12,19.53C742.16,459.43,741.92,473.91,744.43,485.86Z"/><path class="cls-83" d="M793.6,428.78c-5-3.66-11.46-2.53-18.11,1.39-6.65,3.76-13.09,10.06-18.12,19.53-11,20.68-6.62,41.74-.71,55L775,494.1l.94-.54L794.31,483C800.22,462.88,804.58,436.79,793.6,428.78Z"/><path class="cls-84" d="M792.44,430.75c-4.64-3.38-10.82-1.44-17,2.17s-12.07,9.28-16.71,18c-10.13,19.08-6.11,38.51-.66,50.74l16.94-9.78.86-.5,16.93-9.77C798.3,463.09,802.56,438.14,792.44,430.75Z"/><path class="cls-81" d="M779.94,466.14c5-9.47,11.47-15.77,18.12-19.53,6.25-3.68,12.31-4.9,17.19-2l17.51,10.3-10.84,22.27a166.4,166.4,0,0,1-5,22.22l-8,4.64-13,26.79-16.57-9.69C773.32,507.89,769,486.83,779.94,466.14Z"/><path class="cls-85" d="M790.75,472.13c-8.33,15.69-7.83,31.6-4.52,44.16q-1.28-.76-2.58-1.5a22.43,22.43,0,0,0-2.57-1.65c-3.15-12.46-3.5-28.09,4.69-43.52,5-9.47,11.47-15.76,18.12-19.53,6.25-3.68,12.31-4.9,17.19-2l2.3,1.35c-4.34-1.24-9.37.11-14.52,3.15C802.21,456.36,795.77,462.66,790.75,472.13Z"/><path class="cls-8" d="M783.59,512c-.4-.3-.8-.58-1.22-.85-2.5-11.95-2.25-26.4,5.33-40.69,5-9.47,11.47-15.76,18.12-19.53,5-3,10.7-4.16,15-3l1.46.86c-4.34-1.24-10.1,0-15.25,3-6.65,3.76-13.08,10.06-18.11,19.53C781.32,485.57,781.07,500,783.59,512Z"/><path class="cls-85" d="M832.76,454.92c-5-3.67-11.47-2.53-18.12,1.38s-13.09,10.07-18.11,19.53c-11,20.69-6.62,41.75-.71,55l18.35-10.6.94-.54,18.36-10.6C839.38,489,843.74,462.92,832.76,454.92Z"/><path class="cls-81" d="M831.59,456.89c-4.63-3.38-10.81-1.45-17,2.17-6.13,3.47-12.07,9.28-16.71,18-10.12,19.08-6.1,38.5-.65,50.74L814.21,518l.87-.5L832,507.75C837.46,489.23,841.72,464.27,831.59,456.89Z"/><path class="cls-86" d="M821.4,492.86c5-9.47,11.47-15.77,18.12-19.53,6.25-3.68,12.31-4.9,17.19-2l17.51,10.3-10.84,22.27a166.4,166.4,0,0,1-5,22.22l-8,4.64-13,26.78-16.57-9.69C814.78,534.6,810.42,513.54,821.4,492.86Z"/><path class="cls-87" d="M832.21,498.85c-8.33,15.69-7.83,31.6-4.52,44.16-.85-.52-1.71-1-2.58-1.51a22.34,22.34,0,0,0-2.57-1.64c-3.15-12.46-3.5-28.09,4.69-43.52,5-9.47,11.47-15.77,18.12-19.53,6.25-3.68,12.31-4.9,17.19-2l2.3,1.35c-4.34-1.24-9.37.11-14.52,3.15C843.67,483.08,837.24,489.38,832.21,498.85Z"/><path class="cls-8" d="M825.05,538.72c-.4-.3-.8-.58-1.22-.86-2.5-11.94-2.25-26.4,5.33-40.68,5-9.47,11.47-15.77,18.12-19.53,5.05-3,10.71-4.16,15-3l1.46.86c-4.34-1.24-10.09-.05-15.25,3-6.64,3.76-13.08,10.06-18.11,19.53C822.78,512.29,822.53,526.76,825.05,538.72Z"/><path class="cls-88" d="M874.22,481.64c-5-3.67-11.47-2.53-18.12,1.38S843,493.08,838,502.55c-11,20.69-6.62,41.75-.71,55L855.63,547l.94-.55,18.36-10.59C880.84,515.74,885.2,489.64,874.22,481.64Z"/><path class="cls-86" d="M873.05,483.61c-4.63-3.38-10.81-1.45-16.95,2.16s-12.07,9.28-16.71,18c-10.12,19.08-6.1,38.5-.65,50.73l16.93-9.77.87-.5,16.93-9.78C878.92,516,883.18,491,873.05,483.61Z"/><path class="cls-22" d="M430.06,382.81l-2.67-39.46c-.17-3.4-1.24-7-6.44-5.91L412,339.26l-.18-2.71c-.17-3.4-1.24-7-6.44-5.92l-5.64,1.16-.36-7.19c-.18-3.68-1.34-7.56-7-6.41L384,319.92l-.25-5c-.18-3.69-1.34-7.56-7-6.41l-6.55,1.33c-.22-3.6-1.46-7.26-7-6.14L336,309.22h0l-3,.62v0l-2.52.54v-7.72a1.06,1.06,0,0,0-2.12,0v8.18L317,313.32V296.13a1,1,0,0,0-.81-1,30.63,30.63,0,0,0,4.22-14.49c0-9.66-6.83-13.54-15.25-8.68s-15.25,16.63-15.25,26.29,6.83,13.54,15.25,8.68a30.3,30.3,0,0,0,9.72-9.62v16.93l-9.6,8.85-7.58,6.77-30.05,27.58c-2.65,2.86-4.39,7.36-5,11.21L256.06,411c0,4.86,6.83,7.61,12.88,8.86l-4.34,28,11.53,79.94c2,2.63,9.26.66,13.91-2.51l1.77,12.23c3,4,17.93-2.48,17.93-7.76l-1.51-22.17c.74.09,1.51.16,2.29.22,0,1,0,1.94,0,2.82,0,5.62,14.74,8.16,29.78,6.73,5.24,18.5,81.28-16.24,81.28-39.75L421,403.68S430.06,389.65,430.06,382.81Z"/><polygon class="cls-89" points="348.06 300.27 327.97 304.6 309.73 320.9 300.33 342.19 341.64 347.42 349.27 321.99 348.06 300.27"/><path class="cls-67" d="M302,334.87a5.33,5.33,0,0,1,.49-7.12L327.25,305a1,1,0,0,1,.49-.25l24.89-5.32a5,5,0,0,1,3.57,9.28L308.36,336.3a4.7,4.7,0,0,1-2.4.68A5,5,0,0,1,302,334.87Zm51.06-33.4-24.61,5.26L304,329.3a3.19,3.19,0,0,0-.24,4.31,2.65,2.65,0,0,0,3.58.86l47.84-27.62a2.93,2.93,0,0,0-1.36-5.46A2.89,2.89,0,0,0,353.08,301.47Z"/><path class="cls-67" d="M328,306.81a1.07,1.07,0,0,0,1.06-1.06V287.18a1.06,1.06,0,1,0-2.12,0v18.57A1.06,1.06,0,0,0,328,306.81Z"/><path class="cls-90" d="M274.69,359.69c.6-3.85,2.34-8.35,5-11.21l30.05-27.58c-.2,8.42,12.65,17.78,25.29,11.61S350,309.1,345,300.89l30.24-6.17c5.64-1.15,6.79,2.73,7,6.41l2.9,42.77c0,7.41-9.83,22.61-9.83,22.61l.62,80.12c0,26.39-88.4,65.84-88.4,40.73,0-12.92-.27-60.36-.35-75.6-6-.25-19.09-2.94-19.09-9.66Z"/><path class="cls-89" d="M297.73,411.68a1.23,1.23,0,0,0,1-1.15L300.33,377v35.36s-6.57,5.14-13.11,3.75l0-4.23A49.92,49.92,0,0,0,297.73,411.68Z"/><polygon class="cls-89" points="377.49 361.2 375.33 364.76 375.33 333.07 377.49 361.2"/><path class="cls-91" d="M361.84,440.06,339,471.61l-17.12,14.8s44.54,5.57,54.78-20.1S361.84,440.06,361.84,440.06Z"/><polygon class="cls-91" points="358.41 306.94 341.48 309.41 330.31 319.01 336.97 338.57 355.15 352.23 362.78 326.8 358.41 306.94"/><path class="cls-92" d="M353.06,305.63c-15.11,1-21.66,10.2-21.66,10.2l-2.22,7.67c11.21-14.29,31.61-15.32,31.61-15.32Z"/><path class="cls-67" d="M291.1,359.55a1.07,1.07,0,0,1,.13-1.41l49.52-46.6a1.1,1.1,0,0,1,.5-.26l49.53-10.59a1.05,1.05,0,0,1,1.21.66,1.07,1.07,0,0,1-.46,1.3l-99,57.18a1,1,0,0,1-.53.14A1.08,1.08,0,0,1,291.1,359.55ZM342,313.28l-42.68,40.16,85.35-49.28Z"/><path class="cls-67" d="M341.48,313.37a1.06,1.06,0,0,0,1.06-1.06V293.74a1.06,1.06,0,0,0-2.12,0v18.57A1.05,1.05,0,0,0,341.48,313.37Z"/><path class="cls-93" d="M399.25,376.13l-3.48-70.19c-.19-3.68-1.34-7.56-7-6.41l-33.63,6.86c4.9,8.21,7.32,16,1.2,25l-1.49,17.19-7.18-13c-6.45.32-10.86-7.6-17.37-16.61L293.19,354.2a19.61,19.61,0,0,0-5,10.3l-11.54,74.4,11.52,80c3,3.95,17.94-2.48,17.94-7.76L301,435.44l4.48-34.63c0,.55.07,1.11.12,1.64,2.71,28.46,1.32,71.37,1.32,89.51,0,9.21,39.53,10.14,55.17-1.06l.84-32.13,3.39,30c15.5-8.66,16.79-23.37,16.56-30.47-.54-16.63-1.3-32.43-.72-51.41l11,51c0,4.23,16.48.18,16.36-8Z"/><path class="cls-94" d="M331.4,315.83a20.63,20.63,0,0,0-.92,16.42c2.27,6.14,4.26,9.86,8,14.08l9.24-10.71C338.7,331.08,334.91,325,331.4,315.83Z"/><path class="cls-94" d="M353.06,305.63a28.59,28.59,0,0,1,3.29,25.76l11.8-1.07s-3.22-22.73-15.09-24.69Z"/><path class="cls-95" d="M377.52,449.78l-22.83,31.55-17.12,14.79s44.54,5.57,54.78-20.09S377.52,449.78,377.52,449.78Z"/><polygon class="cls-95" points="374.09 316.66 357.16 319.12 345.99 328.72 352.65 348.29 370.83 361.94 378.46 336.52 374.09 316.66"/><path class="cls-96" d="M368.74,315.35c-15.11,1-21.66,10.19-21.66,10.19l-2.22,7.67c11.21-14.28,31.61-15.31,31.61-15.31Z"/><path class="cls-67" d="M306.78,369.26a1.06,1.06,0,0,1,.13-1.4l49.52-46.61a1.1,1.1,0,0,1,.5-.26l49.53-10.58a1.06,1.06,0,0,1,.75,1.95l-99,57.19a1.1,1.1,0,0,1-.53.14A1.07,1.07,0,0,1,306.78,369.26ZM357.67,323,315,363.16l85.35-49.28Z"/><path class="cls-67" d="M357.16,323.08a1.06,1.06,0,0,0,1.06-1.05V303.45a1.06,1.06,0,0,0-2.12,0V322A1.05,1.05,0,0,0,357.16,323.08Z"/><path class="cls-84" d="M414.93,385.84l-3.48-70.18c-.19-3.69-1.34-7.57-7-6.42l-33.63,6.87c4.9,8.21,7.32,16,1.2,25l-1.49,17.19-7.18-13c-6.45.33-10.86-7.6-17.37-16.61l-37.12,35.2a19.57,19.57,0,0,0-5,10.3l-11.54,74.4,11.52,79.94c3,4,17.94-2.48,17.94-7.76l-5.16-75.64,4.48-34.64c0,.55.07,1.11.12,1.65,2.71,28.45,1.32,71.37,1.32,89.5,0,9.21,39.53,10.15,55.17-1.06l.84-32.12,3.39,30c15.5-8.66,16.79-23.37,16.55-30.47-.53-16.62-1.29-32.43-.71-51.41l11,51c0,4.23,16.48.18,16.36-8Z"/><path class="cls-97" d="M347.08,325.54a20.64,20.64,0,0,0-.92,16.42c2.27,6.14,4.26,9.86,8,14.08l9.24-10.71C354.38,340.79,350.59,334.75,347.08,325.54Z"/><path class="cls-97" d="M368.74,315.35A28.57,28.57,0,0,1,372,341.1l11.8-1.07s-3.22-22.73-15.09-24.68Z"/><polygon class="cls-98" points="392.33 326.81 373.79 330.8 356.97 345.84 348.29 365.48 386.41 370.31 393.45 346.85 392.33 326.81"/><path class="cls-67" d="M340.6,366.71a4.09,4.09,0,0,1,.33-5.49l32.25-29.81a1,1,0,0,1,.5-.25l35.65-7.63a3.3,3.3,0,0,1,2.34,6.08l-66.22,38.24a3.73,3.73,0,0,1-1.82.5A3.77,3.77,0,0,1,340.6,366.71Zm69.18-41.11-35.38,7.57-32,29.6a2,2,0,0,0-.08,2.68,1.57,1.57,0,0,0,2.09.56l66.22-38.23a1.12,1.12,0,0,0,.51-1.44,1.14,1.14,0,0,0-1-.77A1.53,1.53,0,0,0,409.78,325.6Z"/><path class="cls-67" d="M373.9,333.25a1.06,1.06,0,0,0,1.06-1.06V313.62a1.06,1.06,0,0,0-2.12,0v18.57A1.05,1.05,0,0,0,373.9,333.25Z"/><path class="cls-36" d="M324.64,381.64a19.44,19.44,0,0,1,4.6-10L357,345.84c-.18,7.77,11.67,16.41,23.33,10.71s13.78-21.6,9.25-29.17l27.89-5.69c5.21-1.06,6.28,2.51,6.45,5.91l2.67,39.46c0,6.84-9.07,20.87-9.07,20.87l.57,73.92c0,24.35-81.56,60.75-81.56,37.58,0-11.92-.24-55.69-.32-69.75-5.53-.23-17.61-2.72-17.61-8.92Z"/><path class="cls-98" d="M345.9,429.5a1.11,1.11,0,0,0,.93-1.06l1.46-30.95v32.63s-6.06,4.74-12.09,3.46l0-3.9A45.71,45.71,0,0,0,345.9,429.5Z"/><polygon class="cls-99" points="419.49 384.64 417.49 387.93 417.49 358.68 419.49 384.64"/><polygon class="cls-100" points="407.89 333.61 389.35 337.6 372.53 352.65 363.85 372.29 401.96 377.11 409.01 353.65 407.89 333.61"/><path class="cls-67" d="M356.15,373.52a4.12,4.12,0,0,1,.34-5.5l32.25-29.81a1,1,0,0,1,.49-.25l35.66-7.62a3.3,3.3,0,0,1,2.34,6.08L361,374.65a3.62,3.62,0,0,1-1.82.5A3.79,3.79,0,0,1,356.15,373.52Zm69.19-41.11L390,340l-32,29.6a2,2,0,0,0-.09,2.68,1.57,1.57,0,0,0,2.1.56l66.22-38.23a1.19,1.19,0,0,0-.54-2.21A1,1,0,0,0,425.34,332.41Z"/><path class="cls-67" d="M389.46,340.05a1.05,1.05,0,0,0,1.05-1.06V320.42a1.06,1.06,0,1,0-2.11,0V339A1.05,1.05,0,0,0,389.46,340.05Z"/><path class="cls-101" d="M340.2,388.44a19.37,19.37,0,0,1,4.6-10l27.73-25.83c-.19,7.77,11.67,16.4,23.33,10.71s13.78-21.6,9.25-29.18L433,328.49c5.21-1.06,6.28,2.51,6.44,5.92l2.68,39.45c0,6.84-9.07,20.87-9.07,20.87l.57,73.92c0,24.35-81.56,60.75-81.56,37.58,0-11.92-.24-55.69-.32-69.75-5.53-.23-17.61-2.72-17.61-8.92Z"/><path class="cls-100" d="M361.46,436.3a1.11,1.11,0,0,0,.93-1.06l1.46-30.95v32.63s-6.06,4.74-12.09,3.46l0-3.9A45.71,45.71,0,0,0,361.46,436.3Z"/><polygon class="cls-100" points="435.05 391.45 433.05 394.73 433.05 365.49 435.05 391.45"/><ellipse class="cls-102" cx="317.19" cy="280.49" rx="21.49" ry="12.41" transform="translate(-85.15 412.41) rotate(-59.64)"/><line class="cls-103" x1="319.33" y1="282.33" x2="393.75" y2="325.29"/><ellipse class="cls-77" cx="690.09" cy="531.37" rx="49.11" ry="26.39"/><path class="cls-77" d="M721.26,528.66c0,9.38-14.16,17-31.63,17S658,538,658,528.66s14.16-17,31.63-17S721.26,519.27,721.26,528.66Z"/><path class="cls-77" d="M721.26,528.11v-5.73a31.72,31.72,0,0,0-31.63-31.62h0A31.72,31.72,0,0,0,658,522.38v6.28Z"/><path class="cls-8" d="M689.63,539.11c-17.41,0-31.52-7.56-31.62-16.9,0,.06,0,.11,0,.17v6.28c0,9.38,14.16,17,31.63,17s31.63-7.61,31.63-17c0-.19,0-.36-.06-.55h.06v-5.73c0-.06,0-.11,0-.17C721.15,531.55,707,539.11,689.63,539.11Z"/><path class="cls-88" d="M703.36,544.31c2.21-.86,1.71-2.95.74-7-1.39-5.77-6.93-1.44-10,1.51,0,0,0,.12-.09.31-3.18-2.89-8.16-6.44-9.47-1-1.26,5.24-1.76,7.22,3.44,7.48l-3.16,4.94h8l1.74-7.36,3.8,7.36,8-3.21Z"/><ellipse class="cls-3" cx="757.31" cy="568.55" rx="49.11" ry="26.39"/><path class="cls-3" d="M788.47,565.84c0,9.38-14.16,17-31.62,17s-31.63-7.61-31.63-17,14.16-17,31.63-17S788.47,556.45,788.47,565.84Z"/><path class="cls-3" d="M788.47,565.29v-5.73a31.71,31.71,0,0,0-31.62-31.62h0a31.72,31.72,0,0,0-31.63,31.62v6.28Z"/><path class="cls-8" d="M756.85,576.29c-17.41,0-31.52-7.56-31.62-16.9,0,.06,0,.11,0,.17v6.28c0,9.38,14.16,17,31.63,17s31.62-7.61,31.62-17c0-.19,0-.36-.05-.55h.05v-5.73c0-.06,0-.11,0-.17C788.37,568.73,774.26,576.29,756.85,576.29Z"/><path class="cls-88" d="M770.58,581.49c2.21-.86,1.71-3,.74-7-1.39-5.76-6.93-1.43-10,1.52,0,0,0,.12-.09.31-3.18-2.89-8.16-6.44-9.47-1-1.26,5.24-1.76,7.22,3.43,7.48L752,587.73h8l1.74-7.36,3.8,7.36,8-3.21Z"/><polygon class="cls-8" points="731.88 367.59 474.56 516.16 474.56 83.5 731.88 -65.07 731.88 367.59"/><path class="cls-104" d="M696.72,16,654.63,51.71c-22.23,18.88-42.56,43.62-58.72,71.47L484.65,315l84.21,47.91L680.13,171.1c16.16-27.85,27.5-57.71,32.77-86.24l10-54C726.62,10.66,712.46,2.6,696.72,16Z"/><ellipse class="cls-55" cx="691.05" cy="55.74" rx="11.01" ry="6.35" transform="translate(293.67 623.85) rotate(-59.64)"/><text class="cls-105" transform="matrix(0.89, -1.54, 0.87, 0.49, 555.46, 333.9)">SALE</text><polygon class="cls-104" points="667.75 263.73 675.34 262.17 683.32 257.56 689.78 259.21 697.37 257.66 702.06 262.35 708.52 264 710.99 271.28 715.68 275.97 715.68 285.12 718.15 292.4 715.68 302.53 715.68 311.68 710.99 321.79 708.52 331.92 702.06 341.02 697.37 351.13 689.78 358.34 683.32 367.45 675.34 372.06 667.75 379.27 660.16 380.82 652.18 385.43 645.72 383.78 638.13 385.34 633.43 380.64 626.98 378.99 624.51 371.72 619.82 367.02 619.82 357.87 617.35 350.59 619.82 340.47 619.82 331.32 624.51 321.21 626.98 311.08 633.43 301.97 638.13 291.86 645.72 284.65 652.18 275.54 660.16 270.94 667.75 263.73"/><text class="cls-106" transform="matrix(0.9, -0.52, 0, 1, 632.2, 353)">25%</text><polygon class="cls-107" points="794.02 701.14 793.34 702.6 820.66 726.08 822.11 720.89 794.02 701.14"/><polygon class="cls-108" points="794.02 701.14 822.55 726.08 833.25 714.94 807.3 692.08 794.02 701.14"/><path class="cls-109" d="M858.13,921.47c-44,25.38-44.17,66.52-.5,91.91s114.73,25.39,158.7,0,44.2-66.53.51-91.91S902.1,896.07,858.13,921.47Z"/><path class="cls-110" d="M958.89,751.65s17.64,14.2,7.85,47.31-12.3,31.78-9.32,42.15c2.23,7.81,10.27,23.87,9.47,37.77-.63,11-2.43,17.34-4.85,35.08-3.08,22.5-2.41,17.73.56,27.2,3.35,10.67-15.8,20-21.9,19.13s7.4-5.77,6.45-24.44-11.23-72.8-16.4-84.62-14-73.27-12.54-92.06C918.21,759.17,937.31,766.64,958.89,751.65Z"/><path class="cls-111" d="M940.66,967.18l-.14-.06Z"/><polygon class="cls-112" points="958.27 949.68 960.97 968.88 962.19 971.59 960.53 949.72 958.27 949.68"/><path class="cls-111" d="M961.22,937.16c-2.56.13-4.82,3.49-9,11.89-1.73,3.46-7,12.33-12,9.21-.6-.37,1-2.6,1-2.6s-7.72-1.63-8.51.68,5,12.81,12.91,11.73,9.43-9.75,11.11-13c3.41-6.63,2.55,7,7.4-6.21C966.75,941.91,961.22,937.16,961.22,937.16Z"/><path class="cls-112" d="M945.7,968.07a8.65,8.65,0,0,1-5-.85c1.75,1,6.53-2.35,9.71-8.38s10.08-9.12,10.08-9.12l1.39,1.44c-1.09,3.22-1.11-2.47-5.12,3.89C954.85,958.16,953.57,967,945.7,968.07Z"/><polygon class="cls-111" points="964.05 945.69 962.02 973.64 957.57 971.46 956.89 942.79 964.05 945.69"/><path class="cls-112" d="M962,973.65l3-2.21s1.72-24.43-.86-29.9c-2.23-4.72-3-4.38-3-4.38Z"/><path class="cls-113" d="M941.34,762.89S956.51,782.4,945,815s-13.9,31.11-11.46,41.62c1.84,7.91,9,24.37,7.54,38.21-1.19,10.94-3.3,17.19-6.63,34.77-4.23,22.32-3.31,17.59-.82,27.2,2.8,10.83-16.81,19.19-22.84,18s7.67-5.38,7.67-24.08-7.5-73.28-12.06-85.34-5.83-85.83-3.42-104.53C903,760.81,919,776.76,941.34,762.89Z"/><path class="cls-111" d="M910.43,981.64l-.14-.07Z"/><polygon class="cls-112" points="928.9 965.06 930.63 984.37 931.71 987.14 931.17 965.22 928.9 965.06"/><path class="cls-111" d="M932.49,952.71c-2.56,0-5,3.23-9.61,11.41-1.91,3.37-7.62,12-12.41,8.58-.57-.4,1.18-2.53,1.18-2.53s-7.63-2-8.53.24,4.38,13.05,12.29,12.37,9.91-9.25,11.77-12.44c3.73-6.44,2.18,7.14,7.7-5.82C937.76,957.74,932.49,952.71,932.49,952.71Z"/><path class="cls-112" d="M915.41,982.78a8.56,8.56,0,0,1-4.89-1.09c1.69,1.07,6.64-2,10.11-7.88s10.54-8.59,10.54-8.59l1.32,1.5c-1.26,3.16-1-2.52-5.31,3.62C925.06,973.35,923.33,982.1,915.41,982.78Z"/><polygon class="cls-111" points="934.88 961.37 931.43 989.18 927.1 986.78 927.88 958.11 934.88 961.37"/><path class="cls-112" d="M931.44,989.19l3.12-2.05s3-24.32.66-29.9c-2-4.84-2.73-4.53-2.73-4.53Z"/><path class="cls-114" d="M965.74,742.72s-40.16,30.57-63.92,5.42a442.08,442.08,0,0,0-5.44,86.26c1.52,38.89,5.44,45.84,5.44,45.84s49.45,9,68.45-16.74c0,0-9.66-20.36-3.92-37.54S987,776.86,965.74,742.72Z"/><path class="cls-115" d="M901.82,880.24s-3.92-7-5.44-45.84a442.08,442.08,0,0,1,5.44-86.26c23.76,25.15,63.92-5.42,63.92-5.42,2,1.53,3.62,7.72,5.07,9.56-3.47,6.89-18,8.53-26.94,11.53-15,5-30.52,27.19-28.85,51,1.21,17.15,5.41,49.9,7.68,66.94A122.1,122.1,0,0,1,901.82,880.24Z"/><path class="cls-31" d="M902,663.87s18.27-28.75,63.81-30.08c0,0,18.92,3.89,12.55,30.72S959,708.38,965.6,732.84s9.28,31.49,9.28,31.49-9.83,33.12-77.21,17.65C897.67,782,897.11,690.79,902,663.87Z"/><path class="cls-113" d="M923.06,626.93l1.86,18.89s16.16,8.82,27.63-5.12l-1.9-19S936.34,628.09,923.06,626.93Z"/><path class="cls-108" d="M933,571.74s-14.37-.13-19.78,10.54S903.18,608.79,910,617.7c7.2,9.55,3.42,15.3,0,18.38s37.42,17,54.95-9.11C964.91,627,976.45,562.11,933,571.74Z"/><path class="cls-116" d="M810.4,723.11c-4.28-7.3-3.56-10.31-1.85-9.1,9.4,6.71,15.89,4.06,15.89,4.06-4.6-2-6.34-5.6-6.56-7.26-.18-1.37,2.13-2.74,3.52-.66s4.38,3.56,6.13,4.13c5.19,1.69,6.75,3.47,7.74,4.9a16.07,16.07,0,0,0,6,5.38c.28.15.63.3,1,.47l-5.38,9.73a39.13,39.13,0,0,0-11-3C816.7,730.38,811.13,724.36,810.4,723.11Z"/><path class="cls-117" d="M897.35,748.71c-3.75,1.44-12.59-.78-12.59-.78-6.9-1.08-7-6.82-6.83-9.39l14.65-53c2-11.27,6.67-21.23,13.8-25.19h0c9.18-5,22.14,1.66,19.35,16C925.73,676.37,907.89,744.63,897.35,748.71Z"/><path class="cls-117" d="M897.64,746.82c4.7-6.86.1-16.48-7.48-19.93l-43.1-6.66a12.9,12.9,0,0,0-12.8,5.55,7.86,7.86,0,0,0-.75,1.41c-2.53,6.69,4.08,9.87,4.08,9.87S887,762.31,897.64,746.82Z"/><polygon class="cls-79" points="1056.26 545.67 998.22 594.74 1118.85 581.35 1056.26 545.67"/><path class="cls-118" d="M1050.53,333.56l14.52-8.86a26.24,26.24,0,0,1,27.7-.92L1335.07,466.3a56,56,0,0,1,28,48.52V673a22.9,22.9,0,0,1-12.14,20.22l-18.58,9.9L1050.2,536Z"/><path class="cls-79" d="M1038.61,349.86v164a42.53,42.53,0,0,0,21.5,37L1325.94,702a9.34,9.34,0,0,0,14-8.12V524.69A48.1,48.1,0,0,0,1316,483.13l-253-147.33A16.27,16.27,0,0,0,1038.61,349.86Z"/><text class="cls-119" transform="matrix(0.9, 0.52, 0, 1, 1058.07, 457.84)">25%</text><text class="cls-120" transform="matrix(0.9, 0.52, 0, 1, 1265.26, 529.54)">1</text><text class="cls-120" transform="matrix(0.9, 0.52, 0, 1, 1265.26, 616.89)">4</text><polygon class="cls-8" points="1315.09 582.4 1243.62 541.14 1243.62 535.47 1315.09 576.73 1315.09 582.4"/><text class="cls-120" transform="matrix(0.9, 0.52, 0, 1, 1195.23, 530.12)">=</text></g></g></g></svg>